<?xml version="1.0" encoding="utf-8"?>
<!-- Generator: Adobe Illustrator 24.2.1, SVG Export Plug-In . SVG Version: 6.00 Build 0)  -->
<svg version="1.1" id="Capa_1" xmlns="http://www.w3.org/2000/svg" xmlns:xlink="http://www.w3.org/1999/xlink" x="0px" y="0px"
	 viewBox="0 0 40 40" style="enable-background:new 0 0 40 40;" xml:space="preserve">
<style type="text/css">
	.st0{fill-rule:evenodd;clip-rule:evenodd;fill:#545454;}
	.st1{opacity:0.7646;fill-rule:evenodd;clip-rule:evenodd;enable-background:new    ;}
</style>
<g id="Components">
	<g id="componentDesktop_x2F_menu_x2F_smaller_x2F_black_x2F_original" transform="translate(-7.000000, -4.000000)">
		<g id="Group-2" transform="translate(7.000000, 4.000000)">
			<g id="Group-3" transform="translate(0.000000, 0.000000)">
				<g id="_x5F_brand-icons_x2F_80x80_x2F_Coffee-capsule">
					<path id="Combined-Shape" class="st0" d="M23.6,8.3l0.2,0.1L28,12l0.1,0.2l2.8,15.9l0.9,2h2.6v1H5.3v-1h2.6l0.9-2l2.8-15.9
						l0.1-0.2l4.2-3.7l0.2-0.1h7.5V8.3z M23.5,8.9h-7.3l-4,3.5L9.4,28.2v0.1l-0.8,1.8h22.5l-0.8-1.8v-0.1l-2.8-15.8L23.5,8.9z"/>
				</g>
				<path id="Path-2-Copy-3" class="st1" d="M8,30.5h13.1c7.4,0.6,10.9,0.4,10.5-0.6c-1.1-2.7-1.7-7.7-2.2-10.2
					c-0.5-2.7-0.8-7.2-2.5-8.5c-1.3-1-2.1-2.9-5.7-2.9c-1.4,0-1.8,0-2.9,0c-0.4,0-1.7,0.2-2.1,0.4c-0.8,0.3-1.4,1-2.1,1.6
					c-0.6,0.5-1.3,1.2-2.2,2.2C10.4,20,9.7,24.7,9.6,26.2C9.4,27.8,8.9,29.2,8,30.5z"/>
			</g>
		</g>
	</g>
</g>
</svg>
