<?xml version="1.0" encoding="utf-8"?>
<!-- Generator: Adobe Illustrator 24.2.1, SVG Export Plug-In . SVG Version: 6.00 Build 0)  -->
<svg version="1.1" id="Capa_1" xmlns="http://www.w3.org/2000/svg" xmlns:xlink="http://www.w3.org/1999/xlink" x="0px" y="0px"
	 viewBox="0 0 40 40" style="enable-background:new 0 0 40 40;" xml:space="preserve">
<style type="text/css">
	.st0{opacity:0.6531;}
	.st1{fill:none;}
	.st2{fill-rule:evenodd;clip-rule:evenodd;}
	.st3{fill-rule:evenodd;clip-rule:evenodd;fill:#545454;}
</style>
<g id="Components" class="st0">
	<g id="componentDesktop_x2F_menu_x2F_smaller_x2F_black_x2F_original" transform="translate(-156.000000, 0.000000)">
		<g id="_x5F_brand-icons_x2F_80x80_x2F_Coffee-Vertuo-capsule" transform="translate(156.000000, 0.000000)">
			<rect id="bounding-box" y="0" class="st1" width="39.7" height="39.6"/>
			<g id="Combined-Shape">
				<g>
					<path id="path-1" class="st2" d="M19.9,8.3c7.2,0,12.7,4.7,14.5,11.9c0.4,1.5,0.6,3.2,0.6,5v4.9h3.6v1H1.2v-1h3.6v-4.7
						c0-2.1,0.3-4,0.8-5.9C7.7,12.7,12.9,8.3,19.9,8.3z M19.9,9.1c-6.5,0-11.5,4.1-13.5,10.7c-0.5,1.8-0.8,3.6-0.8,5.6v4.7l5.2,0
						l-0.4,0c0,0,0-0.1,0-0.2c0-0.1,0-0.3,0-0.4c0-0.5,0-1,0-1.6c0.1-1.7,0.1-3.3,0.3-4.9c0.3-4.4,0.8-6.9,1.7-7.3l0.3,0.7
						c-0.5,0.2-1,2.9-1.3,6.7c-0.1,1.5-0.2,3.2-0.2,4.8c0,0.6,0,1.1,0,1.6c0,0.2,0,0.3,0,0.4c0,0.1,0,0.1,0,0.2l8.3,0l0-16.6h1
						l0,16.6h8.1l0-0.1c0,0,0,0,0-0.1c0-0.1,0-0.3,0-0.4c0-0.5,0-1,0-1.6c0-1.6-0.1-3.3-0.2-4.8c-0.2-3.8-0.7-6.5-1.2-6.7l0.3-0.7
						c0.9,0.4,1.3,3,1.6,7.3c0.1,1.5,0.2,3.2,0.2,4.9c0,0.6,0,1.1,0,1.6c0,0.2,0,0.3,0,0.4c0,0.1,0,0.1,0,0.2l-0.4,0l5.2,0v-4.9
						c0-1.7-0.2-3.3-0.5-4.8C31.8,13.5,26.6,9.1,19.9,9.1z"/>
				</g>
				<g>
					<path id="path-1_1_" class="st3" d="M19.9,8.3c7.2,0,12.7,4.7,14.5,11.9c0.4,1.5,0.6,3.2,0.6,5v4.9h3.6v1H1.2v-1h3.6v-4.7
						c0-2.1,0.3-4,0.8-5.9C7.7,12.7,12.9,8.3,19.9,8.3z M19.9,9.1c-6.5,0-11.5,4.1-13.5,10.7c-0.5,1.8-0.8,3.6-0.8,5.6v4.7l5.2,0
						l-0.4,0c0,0,0-0.1,0-0.2c0-0.1,0-0.3,0-0.4c0-0.5,0-1,0-1.6c0.1-1.7,0.1-3.3,0.3-4.9c0.3-4.4,0.8-6.9,1.7-7.3l0.3,0.7
						c-0.5,0.2-1,2.9-1.3,6.7c-0.1,1.5-0.2,3.2-0.2,4.8c0,0.6,0,1.1,0,1.6c0,0.2,0,0.3,0,0.4c0,0.1,0,0.1,0,0.2l8.3,0l0-16.6h1
						l0,16.6h8.1l0-0.1c0,0,0,0,0-0.1c0-0.1,0-0.3,0-0.4c0-0.5,0-1,0-1.6c0-1.6-0.1-3.3-0.2-4.8c-0.2-3.8-0.7-6.5-1.2-6.7l0.3-0.7
						c0.9,0.4,1.3,3,1.6,7.3c0.1,1.5,0.2,3.2,0.2,4.9c0,0.6,0,1.1,0,1.6c0,0.2,0,0.3,0,0.4c0,0.1,0,0.1,0,0.2l-0.4,0l5.2,0v-4.9
						c0-1.7-0.2-3.3-0.5-4.8C31.8,13.5,26.6,9.1,19.9,9.1z"/>
				</g>
			</g>
		</g>
	</g>
</g>
</svg>
