<?xml version="1.0" encoding="UTF-8"?>
<svg width="40px" height="40px" viewBox="0 0 40 40" version="1.1" xmlns="http://www.w3.org/2000/svg" xmlns:xlink="http://www.w3.org/1999/xlink">
    <title>Group 4vertuo_full_grey.</title>
    <defs>
        <path d="M19.8540972,8.31699003 C27.0248789,8.31699003 32.5189552,13.0074831 34.3795184,20.2616635 C34.7643987,21.7971727 34.9471819,23.4683189 34.9471819,25.2282031 L34.9471819,30.099583 L38.5169486,30.099583 L38.5169486,31.099583 L1.19124583,31.099583 L1.19124583,30.099583 L4.76101251,30.099583 L4.76101251,25.4262267 C4.76101251,23.3652885 5.02477295,21.4023587 5.57184121,19.5705629 C7.65396834,12.6623531 12.946655,8.31699003 19.8540972,8.31699003 Z M19.8540972,9.10908432 C13.3199602,9.10908432 8.32604337,13.2091536 6.34090137,19.7955758 C5.81678673,21.5505182 5.56311804,23.4383444 5.56311804,25.4262267 L5.56311804,30.099583 L10.7202458,30.09899 L10.3201876,30.0949151 C10.3205225,30.0668546 10.3212743,30.0129814 10.3225303,29.9350141 C10.3246187,29.8053792 10.3273858,29.6550908 10.3309191,29.4858672 C10.3410077,29.0026801 10.3552091,28.4643975 10.3742237,27.8847546 C10.4285639,26.2282338 10.5105676,24.5715337 10.6259135,23.0240916 C10.9529803,18.6362755 11.4249997,16.1032356 12.3380697,15.6812083 L12.6780928,16.3986104 C12.2023312,16.6185107 11.7112043,19.2540888 11.4258548,23.0822399 C11.311409,24.6176054 11.2299197,26.2639134 11.1759087,27.9104006 C11.1570002,28.4868105 11.1428802,29.0220055 11.1328542,29.5021957 C11.1293473,29.6701542 11.126603,29.819201 11.1245344,29.9476135 C11.1233535,30.0209164 11.1226288,30.072322 11.1222848,30.1003365 L19.4522458,30.09899 L19.4530444,13.4656029 L20.4530444,13.4656029 L20.4522458,30.09899 L28.5852458,30.09899 L28.5854981,30.0128635 C28.5853758,29.9926531 28.5852259,29.969704 28.5850446,29.9440799 C28.5841364,29.8156551 28.5827459,29.6665959 28.580773,29.4986248 C28.5751327,29.0184048 28.5659607,28.4831792 28.5524564,27.9067375 C28.5138819,26.2601538 28.4483856,24.6137463 28.3496345,23.0782683 C28.1037909,19.2556527 27.6446554,16.6145337 27.1854714,16.3969898 L27.5324205,15.6828289 C28.4281942,16.1072126 28.8675779,18.6347116 29.1501273,23.0280633 C29.2496406,24.5753927 29.3155424,26.2319934 29.3543473,27.8884177 C29.3679259,28.4680288 29.3771498,29.0062808 29.3828246,29.4894382 C29.384812,29.6586491 29.3862138,29.808925 29.3871306,29.9385478 C29.387682,30.0165039 29.3879492,30.0703662 29.3880329,30.0984159 L28.9862458,30.09899 L34.1450764,30.099583 L34.1450764,25.2282031 C34.1450764,23.5292755 33.9692049,21.9213218 33.6014381,20.4540639 C31.8276751,13.5383326 26.6396004,9.10908432 19.8540972,9.10908432 Z" id="path-1"></path>
        <filter x="0.0%" y="0.0%" width="100.0%" height="100.9%" filterUnits="objectBoundingBox" id="filter-2">
            <feOffset dx="0" dy="0" in="SourceAlpha" result="shadowOffsetOuter1"></feOffset>
            <feColorMatrix values="0 0 0 0 0   0 0 0 0 0   0 0 0 0 0  0 0 0 0 0" type="matrix" in="shadowOffsetOuter1"></feColorMatrix>
        </filter>
    </defs>
    <g id="Components" stroke="none" stroke-width="1" fill="none" fill-rule="evenodd">
        <g id="componentDesktop/menu/big/black/vertuo" transform="translate(-186.000000, 0.000000)">
            <g id="Group-4" transform="translate(186.000000, 0.000000)">
                <g id="_brand-icons/80x80/Coffee-Vertuo-capsule">
                    <rect id="bounding-box" x="0" y="0" width="39.7081944" height="39.6047144"></rect>
                    <g id="Combined-Shape">
                        <use fill="black" fill-opacity="1" filter="url(#filter-2)" xlink:href="#path-1"></use>
                        <use fill="#000000" fill-rule="evenodd" xlink:href="#path-1"></use>
                    </g>
                </g>
                <path d="M5.08844991,30.9415797 L34.3129883,30.9415797 C34.6951432,23.8996693 33.8976172,18.9593447 31.9204102,16.1206062 C28.9545996,11.8624984 29.4443457,10.1572266 21.513916,8.91577148 C16.2269629,8.08813477 11.4737077,10.4897463 7.25415039,16.1206062 C5.92828328,20.377952 5.20638312,23.2510763 5.08844991,24.7399792 C4.9705167,26.2288821 4.9705167,28.2960823 5.08844991,30.9415797 Z" id="Path-2-Copy-2" fill="#000000" opacity="0.756208147"></path>
            </g>
        </g>
    </g>
</svg>