<?xml version="1.0" encoding="UTF-8"?>
<svg width="31px" height="31px" viewBox="-86 676 31 31" version="1.1" xmlns="http://www.w3.org/2000/svg" xmlns:xlink="http://www.w3.org/1999/xlink">
    <defs></defs>
    <g id="uniE905" stroke="none" stroke-width="1" fill="none" fill-rule="evenodd" transform="translate(-86.000000, 676.000000)">
        <path d="M15.594,0.281 L15.594,0.281 L15.594,0.281 C13.5313333,0.281 11.5833333,0.677 9.75,1.469 C7.91666667,2.261 6.31766667,3.339 4.953,4.703 C3.58833333,6.067 2.51533333,7.66066667 1.734,9.484 C0.952666667,11.3073333 0.562,13.2603333 0.562,15.343 C0.562,17.4256667 0.952666667,19.3786667 1.734,21.202 C2.51533333,23.0253333 3.58833333,24.619 4.953,25.983 C6.31766667,27.347 7.91666667,28.425 9.75,29.217 C11.5833333,30.009 13.5313333,30.405 15.594,30.405 C17.6773333,30.405 19.6356667,30.009 21.469,29.217 C23.3023333,28.425 24.896,27.347 26.25,25.983 C27.604,24.619 28.677,23.0253333 29.469,21.202 C30.261,19.3786667 30.657,17.4256667 30.657,15.343 L30.657,15.312 C30.657,13.2493333 30.261,11.3013333 29.469,9.468 C28.677,7.63466667 27.604,6.041 26.25,4.687 C24.896,3.333 23.3073333,2.26 21.484,1.468 C19.6606667,0.676 17.7076667,0.28 15.625,0.28 L15.625,0.28 L15.594,0.28 L15.594,0.281 Z M18.25,6.438 L19.594,6.438 L19.594,11.938 C19.594,12.0006667 19.6043333,12.0633333 19.625,12.126 L19.688,12.314 C19.7086667,12.3346667 19.745,12.3606667 19.797,12.392 C19.849,12.4233333 19.896,12.439 19.938,12.439 L19.969,12.439 C20.0523333,12.4183333 20.1253333,12.3923333 20.188,12.361 C20.2506667,12.3296667 20.3026667,12.2933333 20.344,12.252 C20.4273333,12.21 20.5053333,12.158 20.578,12.096 C20.6506667,12.034 20.708,11.961 20.75,11.877 L20.75,6.439 L22.125,6.439 L22.125,13.595 L20.75,13.595 L20.75,12.782 C20.646,12.9073333 20.5313333,13.027 20.406,13.141 C20.2806667,13.255 20.1453333,13.354 20,13.438 C19.8746667,13.5213333 19.7443333,13.584 19.609,13.626 C19.4736667,13.668 19.333,13.689 19.187,13.689 L19.156,13.689 C19.0306667,13.689 18.911,13.6576667 18.797,13.595 C18.683,13.5323333 18.584,13.4593333 18.5,13.376 C18.4166667,13.2506667 18.354,13.1153333 18.312,12.97 C18.27,12.8246667 18.249,12.6786667 18.249,12.532 L18.249,6.438 L18.25,6.438 Z M15.188,6.281 L15.282,6.281 C15.532,6.281 15.7663333,6.328 15.985,6.422 C16.2036667,6.516 16.386,6.64633333 16.532,6.813 C16.6986667,6.959 16.834,7.136 16.938,7.344 C17.042,7.552 17.094,7.78133333 17.094,8.032 L17.094,8.079 C17.094,8.079 17.0836667,8.09466667 17.063,8.126 L17.063,11.845 C17.0836667,11.8656667 17.094,11.8916667 17.094,11.923 L17.094,12.001 C17.094,12.251 17.047,12.4906667 16.953,12.72 C16.859,12.9493333 16.7286667,13.1473333 16.562,13.314 C16.3746667,13.4806667 16.1663333,13.611 15.937,13.705 C15.7076667,13.799 15.4576667,13.846 15.187,13.846 L14.999,13.846 C14.749,13.846 14.5146667,13.799 14.296,13.705 C14.0773333,13.611 13.8846667,13.4806667 13.718,13.314 C13.5513333,13.1266667 13.416,12.9236667 13.312,12.705 C13.208,12.4863333 13.156,12.2416667 13.156,11.971 C13.156,11.9503333 13.1613333,11.9293333 13.172,11.908 C13.1826667,11.8866667 13.188,11.8656667 13.188,11.845 L13.188,8.032 C13.188,7.80266667 13.235,7.57866667 13.329,7.36 C13.423,7.14133333 13.5533333,6.959 13.72,6.813 C13.8866667,6.64633333 14.0896667,6.516 14.329,6.422 C14.5683333,6.328 14.813,6.281 15.063,6.281 L15.188,6.281 L15.188,6.281 Z M9.656,3.938 L10.656,7.813 L10.75,7.813 L11.688,3.938 L13.251,3.938 L11.47,9.626 L11.47,13.657 L9.97,13.657 L9.97,9.782 L8.157,3.938 L9.657,3.938 L9.656,3.938 Z M24.5,24.125 C24.5,24.8336667 24.25,25.4326667 23.75,25.922 C23.25,26.4113333 22.6563333,26.656 21.969,26.656 L21.906,26.656 C19.8433333,26.7393333 17.739,26.781 15.593,26.781 C13.447,26.781 11.3426667,26.7393333 9.28,26.656 L9.249,26.656 C8.54033333,26.656 7.94133333,26.4113333 7.452,25.922 C6.96266667,25.4326667 6.70733333,24.8336667 6.686,24.125 C6.60266667,23.021 6.561,21.9063333 6.561,20.781 C6.561,19.677 6.60266667,18.5623333 6.686,17.437 C6.70666667,16.7496667 6.962,16.161 7.452,15.671 C7.942,15.181 8.541,14.9363333 9.249,14.937 L9.312,14.937 C11.3746667,14.8536667 13.4683333,14.812 15.593,14.812 C17.739,14.812 19.8433333,14.8536667 21.906,14.937 L21.937,14.937 C22.6456667,14.937 23.25,15.1816667 23.75,15.671 C24.25,16.1603333 24.5103333,16.749 24.531,17.437 C24.6143333,18.541 24.656,19.6556667 24.656,20.781 C24.656,21.885 24.6143333,22.9996667 24.531,24.125 L24.5,24.125 L24.5,24.125 Z M11.781,16.75 L7.968,16.75 L7.968,17.906 L9.249,17.906 L9.249,24.625 L10.499,24.625 L10.499,17.906 L11.78,17.906 L11.78,16.75 L11.781,16.75 Z M13.781,23.219 C13.739,23.2816667 13.692,23.3443333 13.64,23.407 C13.588,23.4696667 13.5306667,23.5216667 13.468,23.563 C13.426,23.5836667 13.379,23.6046667 13.327,23.626 C13.275,23.6473333 13.228,23.6683333 13.186,23.689 L13.155,23.689 C13.113,23.689 13.0766667,23.6786667 13.046,23.658 C13.0153333,23.6373333 12.9893333,23.6163333 12.968,23.595 L12.905,23.47 L12.874,23.314 L12.874,23.314 L12.874,23.314 L12.874,18.814 L11.749,18.814 L11.749,23.689 C11.749,23.835 11.77,23.9653333 11.812,24.08 C11.854,24.1946667 11.906,24.304 11.968,24.408 C12.0306667,24.4913333 12.1086667,24.554 12.202,24.596 C12.2953333,24.638 12.3943333,24.659 12.499,24.659 L12.562,24.659 C12.666,24.659 12.7703333,24.6433333 12.875,24.612 C12.9796667,24.5806667 13.0733333,24.5443333 13.156,24.503 C13.2813333,24.4196667 13.396,24.3363333 13.5,24.253 C13.604,24.1696667 13.6976667,24.076 13.781,23.972 L13.781,24.628 L14.906,24.628 L14.906,18.847 L13.781,18.847 L13.781,23.222 L13.781,23.219 Z M18.031,18.781 C17.9476667,18.781 17.8643333,18.7913333 17.781,18.812 C17.6976667,18.8326667 17.6143333,18.864 17.531,18.906 C17.4476667,18.948 17.3696667,19.0053333 17.297,19.078 C17.2243333,19.1506667 17.1566667,19.2286667 17.094,19.312 L17.094,16.781 L15.969,16.781 L15.969,24.625 L17.063,24.625 L17.063,24.156 C17.1256667,24.2393333 17.1933333,24.3123333 17.266,24.375 C17.3386667,24.4376667 17.4166667,24.4896667 17.5,24.531 C17.5833333,24.5723333 17.677,24.6036667 17.781,24.625 C17.885,24.6463333 17.9786667,24.6566667 18.062,24.656 L18.093,24.656 L18.109,24.672 C18.109,24.672 18.1246667,24.6773333 18.156,24.688 C18.2813333,24.688 18.4063333,24.6566667 18.531,24.594 C18.6556667,24.5313333 18.76,24.448 18.844,24.344 C18.9273333,24.2186667 18.99,24.0833333 19.032,23.938 C19.074,23.7926667 19.095,23.6466667 19.095,23.5 L19.095,20.031 C19.095,19.8643333 19.069,19.6976667 19.017,19.531 C18.965,19.3643333 18.8973333,19.2183333 18.814,19.093 C18.7306667,18.989 18.6316667,18.9056667 18.517,18.843 C18.4023333,18.7803333 18.272,18.749 18.126,18.749 L18.079,18.749 C18.079,18.749 18.0633333,18.7593333 18.032,18.78 L18.032,18.78 L18.031,18.781 Z M17.969,23.25 L17.969,23.281 C17.969,23.3436667 17.9586667,23.4113333 17.938,23.484 C17.9173333,23.5566667 17.8963333,23.6243333 17.875,23.687 C17.8543333,23.7076667 17.818,23.7336667 17.766,23.765 C17.714,23.7963333 17.667,23.812 17.625,23.812 L17.562,23.812 C17.52,23.812 17.4783333,23.8016667 17.437,23.781 C17.3956667,23.7603333 17.3643333,23.7393333 17.343,23.718 C17.2803333,23.676 17.2333333,23.6396667 17.202,23.609 L17.093,23.5 L17.093,19.875 C17.135,19.833 17.1713333,19.8016667 17.202,19.781 C17.2326667,19.7603333 17.2586667,19.7393333 17.28,19.718 C17.322,19.6973333 17.3583333,19.687 17.389,19.687 L17.53,19.687 C17.5506667,19.687 17.561,19.6816667 17.561,19.671 C17.561,19.6603333 17.5713333,19.655 17.592,19.655 C17.6546667,19.655 17.712,19.6706667 17.764,19.702 C17.816,19.7333333 17.8523333,19.7803333 17.873,19.843 C17.915,19.885 17.9463333,19.9423333 17.967,20.015 C17.9876667,20.0876667 17.998,20.1553333 17.998,20.218 L17.998,23.249 L17.967,23.249 L17.969,23.25 Z M21.563,18.688 L21.5,18.688 C21.2706667,18.688 21.0623333,18.7296667 20.875,18.813 C20.6876667,18.8963333 20.521,19.0213333 20.375,19.188 C20.229,19.334 20.1196667,19.511 20.047,19.719 C19.9743333,19.927 19.938,20.1456667 19.938,20.375 L19.938,22.969 C19.938,22.9896667 19.9326667,23.0106667 19.922,23.032 C19.9113333,23.0533333 19.906,23.0743333 19.906,23.095 C19.906,23.3243333 19.9476667,23.543 20.031,23.751 C20.1143333,23.959 20.2186667,24.136 20.344,24.282 C20.4693333,24.4486667 20.6256667,24.5736667 20.813,24.657 C21.0003333,24.7403333 21.2086667,24.782 21.438,24.782 L21.594,24.782 C21.8026667,24.782 22.0056667,24.7403333 22.203,24.657 C22.4003333,24.5736667 22.5723333,24.4693333 22.719,24.344 C22.865,24.1773333 22.9743333,23.995 23.047,23.797 C23.1196667,23.599 23.156,23.3853333 23.156,23.156 L23.156,22.562 L22,22.562 L22,23.093 C22,23.197 21.9896667,23.2906667 21.969,23.374 C21.9483333,23.4573333 21.917,23.5406667 21.875,23.624 C21.833,23.6866667 21.781,23.7283333 21.719,23.749 C21.657,23.7696667 21.584,23.78 21.5,23.78 L21.484,23.796 C21.484,23.796 21.4683333,23.8013333 21.437,23.812 C21.3743333,23.812 21.317,23.7963333 21.265,23.765 C21.213,23.7336667 21.166,23.6866667 21.124,23.624 C21.082,23.5406667 21.0506667,23.4573333 21.03,23.374 C21.0093333,23.2906667 20.999,23.197 20.999,23.093 L20.999,21.968 L23.093,21.968 L23.093,20.312 C23.093,20.1033333 23.0566667,19.9003333 22.984,19.703 C22.9113333,19.5056667 22.8123333,19.3233333 22.687,19.156 C22.583,19.01 22.4423333,18.8953333 22.265,18.812 C22.0876667,18.7286667 21.9053333,18.687 21.718,18.687 L21.562,18.687 L21.563,18.688 Z M22,20.938 L21,20.938 L21,20.313 C21,20.2296667 21.0103333,20.1463333 21.031,20.063 C21.0516667,19.9796667 21.083,19.9066667 21.125,19.844 C21.1876667,19.7813333 21.2503333,19.7343333 21.313,19.703 C21.3756667,19.6716667 21.4383333,19.656 21.501,19.656 C21.5843333,19.656 21.6573333,19.6716667 21.72,19.703 C21.7826667,19.7343333 21.8346667,19.7813333 21.876,19.844 C21.9173333,19.9066667 21.9486667,19.9796667 21.97,20.063 C21.9913333,20.1463333 22.0016667,20.2296667 22.001,20.313 L22.001,20.938 L22,20.938 Z M15.125,12.531 L15.125,12.531 L15.125,12.531 C15.2083333,12.531 15.2863333,12.5206667 15.359,12.5 C15.4316667,12.4793333 15.4993333,12.4376667 15.562,12.375 C15.604,12.3123333 15.6403333,12.2496667 15.671,12.187 C15.7016667,12.1243333 15.7173333,12.0513333 15.718,11.968 L15.718,7.968 C15.718,7.90533333 15.7023333,7.848 15.671,7.796 C15.6396667,7.744 15.6033333,7.697 15.562,7.655 C15.4993333,7.613 15.4263333,7.57666667 15.343,7.546 C15.2596667,7.51533333 15.1763333,7.49966667 15.093,7.499 L15.093,7.499 L15.062,7.499 C14.9993333,7.499 14.9316667,7.50933333 14.859,7.53 C14.7863333,7.55066667 14.729,7.59233333 14.687,7.655 C14.645,7.697 14.6086667,7.749 14.578,7.811 C14.5473333,7.873 14.5316667,7.946 14.531,8.03 L14.531,11.936 C14.531,12.0193333 14.5413333,12.0973333 14.562,12.17 C14.5826667,12.2426667 14.614,12.3103333 14.656,12.373 C14.7186667,12.415 14.7863333,12.4513333 14.859,12.482 C14.9316667,12.5126667 15.0203333,12.5283333 15.125,12.529 L15.125,12.529 L15.125,12.531 Z" id="Shape" fill="#FFFFFF"></path>
    </g>
</svg>
