<?xml version="1.0" encoding="utf-8"?>
<!-- Generator: Adobe Illustrator 18.0.0, SVG Export Plug-In . SVG Version: 6.00 Build 0)  -->
<!DOCTYPE svg PUBLIC "-//W3C//DTD SVG 1.1//EN" "http://www.w3.org/Graphics/SVG/1.1/DTD/svg11.dtd">
<svg version="1.1" id="Layer_1" xmlns="http://www.w3.org/2000/svg" xmlns:xlink="http://www.w3.org/1999/xlink" x="0px" y="0px"
	 viewBox="0 0 320 52.1" style="enable-background:new 0 0 320 52.1;" xml:space="preserve">
<g>
	<g>
		<path d="M315.8,27.3c-3.5,2.4-10.3,6.8-14.2,7.6c0,0-1.6-2.2,0.3-5.2c0,0,4.8-1.9,7.2-4.4c2.3-2.4,2.1-4,0.3-4.7
			c-1.9-0.7-3.8-1.2-8.3,3.9c0,0-8.7,9.1-13.5,9.6c0,0-0.9-2.5,1.4-6c2.3-3.5,3.8-4.6,4.5-5.1c0.6-0.4,0.8-0.1,1.1,0.3
			c0.3,0.4,0.7,0.6,1.4-0.3c0.7-0.9,0-1.5-0.7-2.1c-0.7-0.6-2.5-1.6-5.9,1.2c-3.4,2.8-6.1,7.9-5,10c1.1,2.2,1.6,4.9,5.7,2.8
			c4.1-2.1,7.1-5.6,9.6-7.9c0,0-2.4,3-2.1,5.4c0.3,2.4,3.4,4.6,5.6,3.7c2-0.9,5.6-2.9,10.7-6.6c4.7-3.4,5.5-4.3,5.8-4.6
			C320.3,24.7,319.1,25.1,315.8,27.3z M306.2,23.3c1.6-1.8,2.4-2.1,2.9-2c0.9,0.2,1.2,0.7-0.5,2.8c-2.1,2.6-5.7,3.9-5.7,3.9
			S304.2,25.5,306.2,23.3z"/>
		<path d="M291.4,12.5c-0.5-0.2-1.1-0.2-1.4-0.2c0,0,0,0,0.1,0c0,0-2.3,0-4.1,2.2c-1.8,2.2-3.2,3.9-6.6,11.9
			c-2.7,6.3-5.1,12.9-7.1,14.2c-0.4,0.3-0.9,0.6-1.3,0.7c-0.9,0.3-0.8,0.7,0,0.6c2.1-0.1,5.2,0.7,9.2-8.1c3-6.7,5.4-14.2,9.2-18.7
			C290.7,13.6,292.1,12.7,291.4,12.5z"/>
		<g>
			<path d="M260.7,24.6L260.7,24.6c-0.1,0-0.2,0-0.2,0c-0.5,0-0.9,0-1.4,0c-0.3,0-0.7,0-1,0c-0.5,0-1,0-1.6,0c-0.3,0-0.6,0-0.8,0
				c-0.1,0-0.1,0-0.2,0c-0.1,0-0.1-0.1-0.1-0.2c0.1-0.1,0.1-0.2,0.1-0.3c0-0.1,0-0.1,0.1-0.1c0.2-0.3,0.3-0.7,0.5-1c0,0,0-0.1,0-0.1
				c0.1-0.3,0.3-0.7,0.5-1c0.1-0.3,0.3-0.6,0.5-0.8c0.1-0.1,0.1-0.2,0.2-0.3c0,0,0-0.1,0.1-0.1c0-0.1,0.1-0.2,0.1-0.2
				c0.1-0.1,0.2-0.3,0.2-0.4c0,0,0-0.1,0-0.1c0.1-0.1,0.2-0.3,0.3-0.5c0.1-0.1,0.1-0.2,0.2-0.3c0.2-0.3,0.3-0.5,0.5-0.8
				c0,0,0.1-0.1,0.1-0.1c0-0.1,0.1-0.2,0.1-0.2c0.2-0.3,0.4-0.5,0.5-0.8c0-0.1,0.1-0.2,0.1-0.2c0.2-0.2,0.3-0.4,0.5-0.6
				c0.1-0.2,0.3-0.3,0.4-0.5c0,0,0.1-0.1,0.1-0.1c0,0,0.1-0.1,0.1-0.1c0.1-0.1,0.2-0.2,0.3-0.3c0.1-0.1,0.2-0.1,0.2-0.3
				c0,0,0.1-0.1,0.1-0.1c0.2-0.1,0.4-0.3,0.5-0.4c0-0.1,0.1-0.1,0.1-0.1c0.2-0.1,0.5-0.3,0.7-0.5c0,0,0.1-0.1,0.1-0.1
				c0.2-0.1,0.5-0.3,0.7-0.4c0.1-0.1,0.2-0.1,0.3-0.1c0.3,0,0.5-0.1,0.7-0.2c0.2-0.1,0.4-0.1,0.6,0c0.1,0,0.1,0.1,0.1,0.2
				c-0.1,0.2-0.1,0.5-0.2,0.7c0,0.1,0,0.1-0.1,0.2c-0.1,0.4-0.3,0.9-0.4,1.3c-0.1,0.2-0.2,0.5-0.3,0.7c-0.1,0.2-0.2,0.5-0.3,0.7
				c-0.1,0.2-0.2,0.3-0.2,0.5c-0.1,0.2-0.2,0.4-0.4,0.6c0,0.1-0.1,0.1-0.1,0.2c-0.1,0.2-0.2,0.4-0.4,0.5c-0.1,0.1-0.2,0.2-0.2,0.3
				c0,0,0.1,0,0.1,0c0.1-0.1,0.2-0.2,0.4-0.2c0.1,0,0.1,0,0.1-0.1c0.1-0.1,0.2-0.2,0.3-0.3c0,0,0.1-0.1,0.1-0.1
				c0.2-0.1,0.3-0.2,0.5-0.3c0.1,0,0.1-0.1,0.1-0.1c0.1-0.3,0.4-0.5,0.5-0.7c0-0.1,0.1-0.1,0.2-0.2c0.1,0,0.1-0.1,0.1-0.1
				c0.1-0.2,0.2-0.4,0.3-0.5c0,0,0-0.1,0-0.1c0.1-0.2,0.1-0.3,0.3-0.4c0.1-0.1,0.1-0.2,0.2-0.2c0-0.1,0.1-0.2,0.1-0.3
				c0,0,0-0.1,0.1-0.1c0.1-0.2,0.2-0.4,0.3-0.6c0.1-0.1,0.1-0.3,0.2-0.4c0,0,0-0.1,0-0.1c0.1-0.3,0.1-0.5,0.1-0.8c0,0,0-0.1,0-0.1
				c0-0.2-0.2-0.3-0.3-0.5c-0.2-0.1-0.4-0.2-0.6-0.3c-0.1,0-0.1-0.1-0.2-0.1c-0.4-0.1-0.8-0.1-1.3-0.1c-0.2,0-0.4,0-0.6,0
				c-0.3,0-0.5,0.1-0.8,0c0,0,0,0-0.1,0c-0.1,0-0.2,0-0.3,0.1c-0.3,0.1-0.6,0.2-0.9,0.3c-0.5,0.2-0.9,0.5-1.4,0.7
				c-0.1,0-0.1,0.1-0.2,0.1c0,0-0.1,0.1-0.1,0.1c0,0.1-0.1,0.1-0.2,0.2c-0.1,0-0.1,0.1-0.2,0.1c-0.4,0.3-0.8,0.6-1.1,0.9
				c-0.1,0.1-0.2,0.2-0.3,0.3c-0.2,0.1-0.3,0.3-0.5,0.4c-0.5,0.5-1,1.1-1.4,1.8c-0.3,0.5-0.7,1-1,1.5c-0.3,0.5-0.6,1-0.9,1.5
				c-0.1,0.2-0.2,0.4-0.3,0.6c-0.5,0.8-0.9,1.6-1.4,2.4c-0.1,0.3-0.3,0.5-0.4,0.8c0,0.1-0.1,0.2-0.1,0.3c-0.1,0.1-0.1,0.2-0.2,0.3
				c-0.1,0-0.3,0-0.4,0c-0.5,0-1,0-1.6,0c-0.2,0-0.5,0-0.7,0c-0.3,0-0.6,0-0.9,0c-0.3,0-0.6,0-0.9-0.1c-0.2,0-0.4-0.1-0.6-0.1
				c-0.1,0-0.2-0.1-0.4-0.1c-0.3-0.1-0.5-0.2-0.7-0.3c-0.1-0.1-0.3-0.3-0.3-0.5c0-0.1,0-0.1,0-0.2c0-0.1-0.1-0.2-0.1-0.3
				c0,0,0,0-0.1,0c0,0,0,0,0,0c0,0,0,0.1,0,0.1c-0.1,0.3-0.1,0.6-0.2,0.9c0,0.1,0,0.2,0,0.3c0.1,0.2,0.2,0.4,0.3,0.6
				c0,0.1,0.1,0.1,0.2,0.1c0.1,0,0.2,0,0.4,0.1c0.1,0,0.2,0,0.3,0.1c0.1,0,0.2,0,0.2,0c0.3,0.1,0.6,0.1,0.9,0.2c0.4,0,0.7,0,1.1,0
				c0.2,0,0.4,0,0.6,0c0.3,0,0.6,0,0.9-0.1c0.2,0,0.5,0,0.7-0.1c0.1,0,0.1,0,0.2,0c0.1,0,0.3,0,0.4,0c0.1,0,0.1,0,0.2,0
				c0.1,0,0.1,0,0.2,0.1c0,0,0,0,0,0.1c-0.1,0.3-0.3,0.5-0.4,0.8c-0.1,0.2-0.2,0.4-0.3,0.6c-0.1,0.2-0.3,0.4-0.3,0.7c0,0,0,0,0,0.1
				c-0.1,0.1-0.2,0.3-0.2,0.5c-0.1,0.1-0.1,0.3-0.2,0.4c-0.2,0.5-0.4,1-0.6,1.5c-0.2,0.4-0.3,0.8-0.5,1.3c-0.1,0.3-0.3,0.6-0.4,1
				c0,0.1-0.1,0.1-0.1,0.2c-0.2,0.4-0.3,0.8-0.5,1.1c-0.3,0.6-0.5,1.2-0.7,1.8c-0.1,0.3-0.2,0.6-0.3,0.9c-0.1,0.2-0.1,0.4-0.2,0.5
				c-0.1,0.3-0.2,0.7-0.3,1c-0.1,0.3-0.1,0.6,0,0.9c0.1,0.2,0.1,0.4,0.2,0.5c0,0.1,0.1,0.2,0.1,0.3c0,0.3,0.2,0.4,0.3,0.7
				c0,0.1,0.2,0.2,0.3,0.2c0,0,0.1,0.1,0.1,0.1c0.1,0,0.1,0.1,0.2,0.1c0.1,0,0.2,0.1,0.2,0.1c0.1,0.1,0.2,0.1,0.4,0.1
				c0.1,0,0.1,0,0.2-0.1c0.3,0,0.5-0.2,0.6-0.4c0.1-0.2,0.1-0.3,0.2-0.5c0-0.1,0-0.2,0.1-0.3c0.1-0.1,0.1-0.2,0.1-0.4
				c0.2-0.5,0.3-0.9,0.4-1.4c0.1-0.3,0.2-0.5,0.3-0.8c0,0,0.1-0.1,0.1-0.1c0-0.1,0.1-0.1,0.1-0.2c0-0.2,0.1-0.3,0.2-0.5
				c0-0.1,0.1-0.3,0.2-0.4c0.1-0.2,0.2-0.5,0.3-0.7c0.1-0.3,0.3-0.6,0.3-1c0,0,0-0.1,0.1-0.1c0.1-0.2,0.2-0.5,0.3-0.7
				c0-0.1,0-0.1,0.1-0.2c0,0,0-0.1,0.1-0.1c0.1-0.3,0.2-0.6,0.2-0.9c0-0.1,0-0.1,0.1-0.2c0.1-0.1,0.2-0.2,0.1-0.3c0,0,0-0.1,0-0.1
				c0-0.1,0.1-0.1,0.1-0.2c0.1-0.3,0.2-0.6,0.4-1c0-0.1,0-0.2,0.1-0.3c0-0.1,0.1-0.2,0.2-0.3c0.1-0.3,0.3-0.5,0.3-0.8
				c0-0.1,0.1-0.2,0.1-0.3c0.1-0.2,0.2-0.4,0.3-0.7c0.1-0.1,0.1-0.3,0.2-0.4c0.1-0.2,0.1-0.4,0.3-0.6c0,0,0,0,0-0.1
				c0.2-0.3,0.3-0.7,0.5-1c0.1-0.2,0.2-0.4,0.2-0.6c0.1-0.1,0.1-0.2,0.2-0.2c0.1,0,0.1,0,0.2,0c0.2,0,0.3,0,0.5,0c0.1,0,0.1,0,0.2,0
				c0.4,0,0.8,0,1.2-0.1c0.2,0,0.4,0,0.5,0c0.2,0,0.5,0,0.7,0c0.1,0,0.1,0,0.2,0c0.1,0,0.1,0,0.2,0c0.1,0,0.1,0,0.2,0
				c0.3,0,0.6-0.1,0.9-0.1c0,0,0,0,0,0C260.1,24.9,260.3,24.8,260.7,24.6C260.6,24.6,260.7,24.6,260.7,24.6z"/>
			<path d="M275.3,22.5c-0.1,0-0.2,0-0.4,0c-0.4,0.1-2,0.5-2.6,1c-0.4,0.3-0.8,0.6-1.2,1c-1,0.9-2.1,2.2-3,3.2
				c-0.1,0.1-0.2,0.3-0.4,0.3c0-0.1,0-0.2,0.1-0.3c0.2-0.5,0.4-0.9,0.6-1.4c0.4-1.1,0.9-2.1,1.2-3.2c0.2-0.7,0.1-1.3-0.2-1.9
				c-0.1-0.2-0.2-0.4-0.4-0.5c-0.5-0.2-1.1-0.4-1.6-0.2c-0.4,0.1-0.7,0.3-1.1,0.5c-1,0.6-1.9,1.2-2.8,1.9c-0.8,0.6-1.6,1.3-2.3,2.1
				c-0.2,0.2-0.4,0.6-0.6,0.9c-0.2,0.3-0.3,0.7-0.4,1c-0.4,0.9-0.7,1.9-1.3,2.7c-0.7,1-1.4,1.8-2.3,2.6c-0.2,0.2-0.4,0.3-0.7,0.4
				c0-0.1-0.1-0.2-0.1-0.3c0.1-0.5,0.2-1,0.4-1.5c0.4-0.7,0.7-1.4,1.1-2.1c0.3-0.6,0.8-1.2,1.3-1.7c0.6-0.7,1.3-1.3,1.9-1.9
				c0.1-0.1,0.2-0.3,0.3-0.5c0.1-0.2-0.1-0.3-0.2-0.3l-0.3,0.8c-0.1-0.2-0.3-0.2-0.4-0.3c0,0-0.1,0-0.1,0c0,0-0.1,0-0.1,0.1
				c-0.3,0.2-0.5,0.4-0.7,0.6c-1.2,1-2.3,2-3.1,3.2c-0.3,0.5-0.7,0.9-1,1.4c-0.5,0.8-0.7,1.7-0.1,2.6c0.1,0.1,0.1,0.2,0.1,0.3
				c0.1,0.4,0.3,0.6,0.6,0.8c0.2,0.1,0.5,0.2,0.7,0.3c0.5,0.2,0.9,0.1,1.4-0.1c0.3-0.2,0.7-0.5,1-0.7c0.8-0.6,1.4-1.4,2-2.1
				c0.7-0.8,1.3-1.8,1.6-2.9c0.1-0.4,0.2-0.8,0.4-1.3c0.2-0.4,0.2-0.8,0.3-1.3c0.1-0.3,0.1-0.7,0.2-1c0.2-0.6,0.6-0.9,1.1-1.4
				c0.9-1,2-1.8,3.2-2.6c0.1,0,0.2-0.1,0.2-0.1c0.2,0.1,0.2,0.4,0.1,0.6c-0.1,0.6-0.2,1.2-0.4,1.7c-0.2,0.7-0.4,1.4-0.7,2
				c-0.3,0.9-0.7,1.7-1.1,2.5c-0.5,1.1-1,2.1-1.6,3.2c-0.3,0.7-0.6,1.4-0.9,2.1c-0.2,0.3-0.2,0.7,0,1c0.2,0.4,0.3,0.9,0.9,1
				c0.2,0,0.2-0.2,0.3-0.3c0.6-0.6,1-1.4,1.3-2.2c0.1-0.2,0.2-0.4,0.3-0.6c0.7-1,1.3-2,2-3c0.3-0.4,0.6-0.9,1-1.3
				c0.7-0.8,1.5-1.3,2.2-2.1c0,0,0.1-0.1,0.1-0.1c0.2-0.2,0.6-0.5,0.7-0.5c0.5-0.3,1.5-0.5,1.9-0.7c0.6-0.2,0.9-0.2,1.4-1
				c0.1-0.1,0.2-0.3,0.2-0.4C275.5,23,275.5,22.6,275.3,22.5z"/>
			<path d="M260.4,25.4l0.3-0.8c0,0-0.1,0-0.1,0c-0.3,0.1-0.5,0.3-0.8,0.5c0,0,0.1,0,0.1,0C260.1,25.2,260.3,25.2,260.4,25.4z"/>
		</g>
	</g>
	<g>
		<g>
			<path d="M20.2,28.8c0.1-0.1,0.2-0.2,0.3-0.2c0.6-0.3,1.1-0.5,1.7-0.8c1.7-0.8,3.5-1.7,5.1-2.7c1.7-1,3.3-2,4.7-3.3
				c1.5-1.4,2.7-3,3.2-5.1c0.2-0.7,0.3-1.4-0.1-2.1c-0.3-0.7-0.7-1.3-1.2-1.7c-1.1-0.9-2.2-1.7-3.6-2.2C26,8.9,20.4,9.2,15.8,10.1
				c-2.9,0.6-5.8,1.5-8.5,2.8c-2.6,1.3-5.4,2.8-7.1,5.3c-0.1,0.2-0.2,0.4-0.1,0.6c0.2,0.4,0.5,0.9,0.7,1.3c0.3,0.4,0.9,0.5,1.3,0
				C2.4,19.5,3,19,3.5,18.5c3.1-3,7.7-4.7,11.8-5.8c4.6-1.2,10-1.8,14.6-0.5c1.2,0.3,2.3,0.8,3.3,1.6c0.4,0.3,0.5,0.7,0.5,1.2
				c0,0.2-0.1,0.4-0.2,0.6c-0.4,1.1-1,2-1.7,2.8c-1.6,2-3.9,3.3-6.1,4.6c-1.9,1.1-3.8,2.1-5.7,3c-1.7,0.8-3.5,1.8-5.4,2
				c-0.2,0-0.3,0.2-0.4,0.4c0,0.1-0.1,0.3-0.1,0.4c0,0.9,0,0.9,0.7,1.5c0.3,0.2,0.5,0.3,0.8,0.2c0.7-0.2,1.4-0.3,2.1-0.3
				c0.4,0,0.7,0,1.1,0c1,0,2,0.1,3,0.4c0.9,0.3,1.5,0.8,2.3,1.3c0.1,0,0.1,0.2,0.1,0.3c-0.1,0.2-0.2,0.4-0.3,0.5
				c-0.6,0.5-1.1,1.1-1.8,1.6c-3.7,2.5-8.2,4.8-12.6,5.6c-0.4,0.1-0.8,0.2-1.1,0.4c-0.5,0.5-0.3,1.3,0.2,1.7
				c0.5,0.4,1.3,0.4,1.9,0.3c2.4-0.6,4.9-1.8,7.2-2.9c1.8-0.8,3.5-1.6,5.2-2.7c0.7-0.5,1.5-1,2-1.7c0.5-0.6,1-1.1,1.5-1.6
				c0.7-0.6,1.4-1.1,2.1-1.6c0.5-0.4,1.1-0.8,1.6-1.1c0.1-0.1,0.2-0.1,0.4-0.1c-0.1,0.2-0.2,0.4-0.3,0.5c-0.5,0.5-0.9,1.1-1.4,1.6
				c-0.4,0.5-0.8,1-0.8,1.6c-0.1,1,0.3,2.9,1.7,2.7c1.1-0.1,2.5-1.2,3.2-2c0.4-0.4,0.8-0.7,1.1-1c0.1-0.1,0.2-0.1,0.3-0.2
				c0.1,0.2,0,0.4-0.1,0.5c-0.6,1-1.2,2-1.2,3.2c0,0.2,0,0.5,0.1,0.7c0.4,0.9,1.1,1.5,1.9,1.9c0.6,0.3,1.2,0.2,1.7-0.4
				c0.1-0.1,0.2-0.2,0.3-0.3c0.3-0.4,0.6-0.7,1-1.1c2.7-2.8,5.1-5.9,7.7-8.8c0.1-0.1,0.2-0.3,0.5-0.3c-0.1,0.2-0.1,0.3-0.2,0.5
				c-0.5,1-0.9,1.9-1.4,2.9c-0.6,1.1-1.1,2.3-1.5,3.5c-0.2,0.8-0.2,1.5,0.1,2.3c0.1,0.2,0.2,0.4,0.4,0.5c0.3,0.2,0.6,0.4,0.9,0.6
				c0.5,0.3,1.1,0.2,1.5-0.3c0.2-0.3,0.4-0.7,0.6-1c0.1-0.1,0.1-0.2,0.2-0.3c1-1.3,1.8-2.8,2.7-4.2c0.6-0.9,1.2-1.8,2-2.7
				c0.9-1,1.9-1.9,2.9-2.9c0.8-0.7,1.7-1.3,2.6-1.9c0.3-0.1,0.5-0.3,0.8-0.3c0.6-0.1,0.4,0.8,0.7,1c0.4,0.3,1.1-0.1,1.2-0.7
				c0-0.4-0.4-0.8-0.8-0.9c-1.3-0.2-2.5-0.2-3.7,0.5c-1.8,1.1-3.3,2.4-4.7,3.9c-0.2,0.2-0.4,0.4-0.7,0.6c0-0.1,0-0.2,0-0.2
				c0.3-0.8,0.6-1.6,1-2.3c0.3-0.7,0.7-1.5,1-2.2c0.1-0.2,0.2-0.5,0.2-0.7c0-0.5-0.2-0.8-0.7-0.9c-0.4-0.1-0.7-0.2-1.1-0.2
				c-0.2,0-0.5,0.1-0.7,0.2c-0.3,0.2-0.6,0.5-0.9,0.8c-0.9,1-1.9,1.9-2.8,2.9c-0.8,0.9-1.7,1.8-2.5,2.6c-0.5,0.5-0.9,1-1.4,1.6
				c-0.7,0.9-1.4,1.8-2.2,2.6c-1,1.1-2,2.1-3.1,3.1c-0.1,0.1-0.2,0.1-0.3,0.2c-0.2-0.2,0-0.3,0-0.5c0.6-1.4,1.1-2.7,1.7-4.1
				c0.3-0.7,0.6-1.5,1-2.2c0.2-0.4,0.5-0.9,0.7-1.3c0.1-0.2,0.1-0.3-0.1-0.5c-0.3-0.3-0.7-0.4-1.1-0.4c-1.2-0.1-2.4,1.6-3.3,2.4
				c-0.9,0.7-1.8,1.4-2.7,2.2c-0.7,0.5-1.4,1.1-2,1.6c-0.1,0.1-0.3,0.3-0.6,0.2c0-0.1,0-0.2,0-0.2c0.4-0.9,0.9-1.7,1.5-2.5
				c0.5-0.6,1-1.2,1.5-1.7c0.4-0.4,0.8-0.8,1.2-1.1c0.6-0.5,1.3-1,2-1.5c0.4-0.3,0.9-0.6,1.4-0.8c0.2-0.1,0.3-0.1,0.5,0.1
				c0.3,0.2,0.5,0.2,0.7,0c0.2-0.3,0.2-0.6-0.1-0.8c-0.3-0.2-0.7-0.3-1.1-0.3c-0.6-0.1-1,0.2-1.5,0.5c-0.8,0.5-1.6,0.9-2.4,1.4
				c-1.1,0.6-2.2,1.2-3.3,1.9c-1.3,0.9-2.6,1.8-3.9,2.7c-0.1,0.1-0.2,0.1-0.3,0.1c-0.1-0.2-0.1-0.4-0.2-0.6c-0.5-1-1.3-1.7-2.2-2.1
				c-1-0.5-2-0.9-3.1-1.2C20.5,28.9,20.4,28.9,20.2,28.8"/>
			<path d="M20.9,16.6c-0.1-0.8-1.6-1.3-2.2-1.5c-0.2-0.1-0.4,0-0.5,0.2c-0.2,0.2-0.3,0.3-0.5,0.5c-1.2,1.6-2.4,3.1-3.5,4.7
				C9.6,26.6,5.9,33.2,2.2,39.7c-0.1,0.2-0.3,0.4-0.4,0.6c-0.2,0.5-0.1,1,0.3,1.3c0.6,0.4,0.9,0.9,1.6,1.1c0.7,0.1,1.1-0.3,1.5-0.8
				c4-6.4,8-12.8,12-19.2c0.7-1.1,1.3-2.2,2.1-3.3c0.1-0.2,0.2-0.4,0.3-0.6c0.4-0.6,1-1.3,1.2-2C20.9,16.8,20.9,16.7,20.9,16.6"/>
			<path d="M62.2,21.8c0.4-0.2,0.4-0.8,0.1-1.1c-0.2-0.2-0.4-0.3-0.7-0.4c-0.3-0.1-0.6-0.1-0.9,0.1c-0.2,0.2-0.5,0.3-0.7,0.5
				c-0.4,0.3-0.8,0.7-1.2,1c-0.4,0.4-0.3,0.5,0,0.9l0,0c0.4,0.5,1.2,0.6,1.7,0.2C61.1,22.5,61.4,22.1,62.2,21.8
				C62.2,21.8,62.2,21.8,62.2,21.8"/>
			<path d="M97.6,15.7c0.3,0,0.4-0.3,0.2-0.5c-0.5-0.5-1.7-0.9-2.2-1c-1.4-0.5-2.7-0.8-4.4-0.7c-0.4,0,1.1-1.7,0.4-2.2
				c-0.9-0.7-1.8-0.8-2.3-0.6c-0.2,0.1-0.5,0.3-0.9,1c-0.3,0.4-0.7,1-1,1.4c-0.3,0.4-0.7,0.5-1.1,0.6c-0.5,0-1.4,0.1-1.9,0.2
				c-3,0.5-5.6,0.8-8.6,1.1c-1.1,0.1-10.1,1.7-9.8-0.2c0.1-0.4,0.1-0.8-0.1-1.1c-0.1-0.2-0.7-0.2-0.7,0.1c-0.1,0.4-0.1,0.8,0,1.2
				c0.1,0.3,0.2,0.6,0.3,0.8c0.3,0.9,0.9,1.5,1.9,1.8c0.8,0.2,1.6,0.3,2.4,0.3c1.8,0,3.5-0.4,5.3-0.7c0.7-0.1,1.4-0.3,2.2-0.4
				c1.3-0.2,2.6-0.4,3.9-0.6c1.3-0.2,2.5-0.4,3.8-0.5c0.2,0,0.3-0.1,0.5,0.1c-0.1,0.1-0.1,0.2-0.2,0.3c-0.4,0.7-0.9,1.5-1.3,2.2
				c-1.6,2.9-3.8,7.9-5.2,10.9c-0.1,0.2-0.3,0.4-0.6,0.4c-1.5,0.3-3,0.6-4.6,0.8c-0.2,0-0.5,0.1-0.7,0c-0.1,0-0.1-0.1-0.1-0.2
				c0-0.5,0.1-1.1,0.3-1.6c0.3-1,0.6-2,0.8-3c0.6-2.7,1.4-1.2,2.2-1.6c0.4-0.2,0.5-0.4,0.5-0.8c0-0.3-0.9-0.8-1.3-0.9
				c-0.4-0.1-0.7-0.2-1.1,0c-1,0.5-1.7,1.3-2.5,2c-0.8,0.8-1.8,1.4-2.6,2.1c-1.8,1.5-3.5,3.2-5.3,4.7c-1.7,1.4-3.8,2.6-5.3,4.1
				c-0.3,0.3-0.7,0.5-1.1,0.7c-0.1,0-0.1,0-0.2,0c-0.1,0-0.1-0.1-0.1-0.2c0.1-0.1,0.1-0.3,0.2-0.4c0.5-0.9,0.9-1.8,1.4-2.7
				c0.6-1.1,1-2.2,1.8-3.2c0.3-0.3,0.2-0.8-0.2-1c-0.1-0.1-0.2-0.1-0.3-0.2c-0.6-0.2-0.9-0.2-1.2,0.4c-0.4,0.8-0.9,1.6-1.3,2.4
				c-0.3,0.5-0.4,1.1-0.7,1.6c-0.5,0.8-0.8,1.5-1,2.4c-0.1,0.5-0.2,1.2,0.2,1.7c0.3,0.4,0.8,0.6,1.4,0.6c0.9-0.1,1.8-0.8,2.5-1.4
				c0.9-0.7,1.8-1.4,2.7-2.1c1.7-1.4,3.4-2.9,5-4.4c0.6-0.6,1.3-1.2,1.9-1.7c0.1-0.1,0.3-0.2,0.5-0.3c0.1,0,0.1,0,0.1,0.1
				c0,0.3,0,0.8,0,0.9c-0.2,1.2,0,2.8-1,3.2c-1.7,0.6-2.8,1.4-4.2,2.5c-0.6,0.5-1,1.6-0.7,2.3c0.3,0.6,1.3,0.9,1.9,1.1
				c0.8,0.2,1.7,0.1,2.5-0.1c1.2-0.4,3.2-1.1,3.6-2.4c0.3-0.9,0.6-1.7,0.6-2.6c0-0.4,0.3-0.7,0.7-0.9c1.5-0.5,2.6-0.7,4.1-1.3
				c0.4-0.1,0.9-0.3,0.9-0.2c-0.2,0.3-0.2,0.4-0.2,0.5c-0.5,1.5-0.4,1-1,2.5c-0.3,0.9-1.7,3-0.9,3.9c0.5,0.5,1,1,2.1,0.3
				c0.6-0.4,1-1,1.4-1.6c0.3-0.6,0.6-1.2,0.8-1.8c1.3-3.4,2.8-6.6,4.5-9.8c1.6-3,3.1-6.2,5.2-8.9c0.2-0.2,0.4-0.3,0.7-0.4
				c0.8-0.1,1.6-0.2,2.5-0.2c0.9,0,1.8,0.1,2.7,0.3C96.3,15.3,97,15.6,97.6,15.7 M66.7,35.8c-0.1,0-0.2-0.1-0.2-0.2
				c0-0.2,0.1-0.3,0.2-0.4c0.3-0.3,0.6-0.6,1-0.8c0.2-0.1,0.4-0.2,0.6-0.3c0.2-0.1,0.4-0.2,0.6-0.3c0.1,0,0.1,0,0.2,0
				c0,0,0,0.1,0,0.1c0,0.3-0.1,0.5-0.3,0.7c-0.5,0.4-1.1,0.7-1.7,1.1C67,35.8,66.8,35.8,66.7,35.8"/>
			<path d="M97.6,31.7c-0.2,0.1-0.3,0.3-0.5,0.4c-1.2,1-2.3,2.1-3.5,3.1c-0.1,0.1-0.2,0.1-0.3,0.2c-0.2-0.2-0.1-0.4,0-0.6
				c0.4-1.2,0.9-2.4,1.3-3.6c0.3-0.8,0.6-1.6,0.9-2.4c0.3-0.6,0.6-1.3,0.8-1.9c0.2-0.6,0.1-1-0.6-1.2c-0.3-0.1-0.7-0.2-1.1-0.4
				c0-0.1,0-0.2,0.1-0.3c0-0.1,0.1-0.2,0.1-0.3c0.1-0.3,0-0.5-0.3-0.6C94.2,24,92.1,23.8,91,24c-2.3,0.5-3.8,1.9-5.4,3.6
				c-0.8,0.9-1.6,1.9-2.2,2.9c-0.7,1-1.1,3.7,0,4.7c0.4,0.3,0.9,0.4,1.4,0.3c2-0.2,3-1.9,4.3-3.2c0.7-0.7,1.3-1.3,2-2
				c0.1-0.1,0.2-0.2,0.4-0.3c0.1,0.2,0.1,0.3,0,0.4c-0.4,0.7-0.8,1.5-1.2,2.2c-0.5,0.9-0.8,1.9-0.9,2.9c-0.1,1.1,0.4,1.9,1.2,2.6
				c0.1,0.1,0.2,0.1,0.3,0.2c0.4,0.2,0.8,0.2,1.2,0.2c0.3,0,0.5-0.1,0.8-0.2c0.3-0.2,0.6-0.5,0.8-0.7c0.7-0.7,1.3-1.4,2-2.1
				c1-1,1.7-2.2,2.7-3.2c0.9-0.9,1.2-1.5,2.3-1.9c0.4-0.2,1.4-0.1,1.5-0.5c0.1-0.3-0.4-0.4-0.7-0.4c-0.4,0-1.6,0.5-1.9,0.8
				C98.3,31.1,98.6,30.9,97.6,31.7 M85.5,33.7c-2.5,1.4-0.9-1.3-0.6-1.8c0.5-0.8,1.1-1.5,1.7-2.2c0.3-0.3,0.5-0.7,0.8-1
				c0.3-0.3,0.6-0.7,1-1c0.9-0.7,1.9-1.5,3-2c0.6-0.3,1.3-0.5,2-0.4c0.8,0,0.9,0.1,0.5,0.7c-0.4,0.6-0.9,1.3-1.5,1.8
				c-1,0.8-1.9,1.7-2.9,2.5c-0.9,0.8-1.7,1.5-2.6,2.3C86.6,32.9,86,33.5,85.5,33.7"/>
		</g>
		<g>
			<path d="M138.8,16.9c0,0,0.1,0.1,0.2,0.1c1.2,0.7,1.8-1.3,2.3-2c0.1-0.2,0.2-0.4,0.2-0.6c-0.1-0.9-2.1-1.8-2.8-2
				c-0.7-0.3-1.5-0.4-2.3-0.4c-3.1,0.3-5.9,1.1-8.5,2.8c-2.7,1.7-5.2,3.7-7.5,5.9c-3.4,3.3-8.1,8.8-6.9,13.9
				c0.3,1.2,0.9,2.2,1.6,3.1c0.9,1.1,2.2,1.5,3.6,1.5c1.2,0,2.3-0.3,3.5-0.6c2.1-0.6,4-1.5,5.9-2.6c1.8-1,3.8-1.8,5.4-3
				c0.3-0.2,0.6-0.4,1-0.6c0.3-0.1,0.5-0.4,1-0.4c-0.3,0.6-0.5,0.9-0.7,1.4c-0.2,0.6-0.5,1.2-0.8,1.7c-0.3,0.6-0.4,1.2,0.2,1.9
				c0.1,0.2,0.3,0.3,0.4,0.5c0.3,0.5,0.8,0.7,1.4,0.4c0.7-0.4,1-2,1.3-2.6c1.5-3.1,4.3-6.2,7-8.3c1-0.8,2.1-1.5,3.1-2.2
				c0.2-0.1,0.4-0.3,0.6-0.2v0.4c0,0.3,0.3,0.4,0.5,0.2c0.2-0.1,0.3-0.3,0.4-0.4c0.3-0.3,0.2-0.6-0.1-0.8c-0.1-0.1-0.6-0.2-0.7-0.2
				c-1-0.1-1.6,0.2-2.4,0.8c-1.6,1-3.1,2-4.4,3.3c-0.2,0.2-0.4,0.4-0.7,0.5c-0.1,0-0.1,0-0.1-0.1c0-0.1,0.1-0.3,0.1-0.4
				c0.2-0.5,0.3-0.9,0.5-1.4c0.1-0.3,0-0.4-0.1-0.7c-0.3-0.4-0.8-0.7-1.2-0.9c-0.2-0.1-0.4-0.1-0.6,0.2c-0.1,0.1-0.1,0.2-0.2,0.3
				c-0.8,1.6-1.7,3.2-2.7,4.7c-0.2,0.3-0.5,0.6-0.9,0.8c-0.7,0.3-1.5,0.7-2.2,1.1c-0.2,0.1-0.5,0.2-0.7,0.3c-4.4,1.8-8.8,4.2-13.5,5
				c-1.8,0.3-2.7-1.2-2.3-2.9c0.6-2.2,1.5-4.2,2.6-6.2c1.4-2.5,2.8-4.9,4.8-7c3.5-3.7,7.7-6.1,12.7-7.2c0.2-0.1,0.5-0.1,0.8-0.1
				c0.2,0,0.5-0.1,0.7,0.1c-0.1,0.2-0.1,0.3-0.2,0.5C138.1,15.3,138.3,16.4,138.8,16.9"/>
			<path d="M190.5,21.8c0.3-0.3,0.5-0.7-0.1-1.1c0,0,0,0,0,0c-0.8-0.6-0.9-0.5-1.9-0.7c-0.5-0.1-0.9,0.4-0.7,0.8
				c0.2,0.5,0.4,1.6,1,1.7c0.2,0,0.4-0.1,0.6-0.2C189.8,22.3,190.2,22,190.5,21.8"/>
			<path d="M163.5,33.2c0.1,0.1,0.1,0,0.1,0.1c-0.1,0.3-0.2,0.5-0.3,0.8c-0.2,0.5-0.4,1.1-0.5,1.6c-0.5,1.8,2.3,3.9,3.8,2.5
				c2.4-2.4,4.3-5.1,6.3-7.8c2.1-2.8,4.5-5.4,6.8-8c0.3-0.3,0.6-0.7,1.1-1c-0.1,0.2-0.1,0.3-0.1,0.3c-0.1,0.2-0.3,0.4-0.4,0.6
				c-2,3.6-3.4,7.5-4.8,11.4c-0.1,0.2-0.1,0.5-0.2,0.7c-0.3,0.9-0.2,1.6,0.4,2.4c0.3,0.4,0.7,0.5,1.1,0.4c0.3,0,0.5-0.2,0.6-0.5
				c0.1-0.4,0.2-0.7,0.3-1.1c1.1-3.1,2.2-6.1,3.6-9.1c1.3-2.7,2.9-5.1,4.5-7.6c0.2-0.3,0.4-0.5,0.7-0.6c1.3-0.5,2.6-0.7,3.9-0.6
				c0.5,0,1,0,1.4,0c0.9,0,1.9,0,2.8,0.1c1,0.1,2,0.2,2.9,0.4c0.5,0.1,0.9,0.3,1.4,0.5c0.4,0.1,0.8,0.4,1.1,0.7
				c0.1,0.1,0.2,0.2,0.4,0.3c0.1-0.4-0.1-0.7-0.3-0.9c-0.7-1.1-1.8-1.7-2.9-2.1c-0.8-0.3-1.7-0.6-2.6-0.7c-1.7-0.3-3.5-0.4-5.3-0.5
				c-0.3,0-0.5,0.1-0.8-0.1c0.1-0.1,0.1-0.2,0.1-0.3c0.6-0.8,1.2-1.5,1.8-2.2c0.1-0.2,0.3-0.3,0.5-0.4c0.4-0.2,0.6-0.5,0.6-0.8
				c0-0.3-0.1-0.6-0.4-0.7c-0.2-0.1-0.4-0.1-0.5-0.2c-0.2,0-0.5-0.1-0.7,0c-0.4,0.1-0.7,0.2-0.9,0.5c-0.7,0.8-1.4,1.6-2.1,2.3
				c-0.6,0.6-1.1,1.2-1.7,1.8c-0.2,0.2-0.5,0.4-0.9,0.4c-1.5,0.1-3,0.2-4.5,0.3c-1.7,0.2-3.5,0.4-5.2,0.6c-1.1,0.1-2.2,0.2-3.2,0.2
				c-1.8,0-3.7,0-5.5-0.4c-0.5-0.1-1-0.2-1.5-0.3c-0.5-0.1-0.6-0.4-0.6-0.9c0-0.1,0.1-0.3,0.1-0.4c0.2-0.4,0.2-0.8,0.1-1.3
				c0-0.1-0.1-0.2-0.2-0.4c-0.5,0.3-0.8,0.8-0.9,1.3c0,0.4,0,0.8,0,1.3c0,0.6,0.2,1,0.6,1.4c0.3,0.4,0.8,0.6,1.2,0.8
				c0.8,0.3,1.6,0.5,2.4,0.7c1.2,0.3,2.5,0.5,3.8,0.5c2.3,0.1,4.5-0.1,6.8-0.4c1.1-0.1,2.2-0.3,3.3-0.4c0.2,0,0.5-0.1,0.8,0.1
				c-0.2,0.2-0.3,0.4-0.4,0.5c-0.2,0.2-0.3,0.3-0.5,0.5c-1.1,1.3-2.2,2.5-3.3,3.8c-1.3,1.5-2.5,3-3.8,4.5c-1.8,2.1-3.6,4.2-5.4,6.3
				c-0.5,0.6-1,1.2-1.6,1.8c-0.1,0.1-0.2,0.2-0.3,0.2c0,0-0.1,0-0.1-0.1c0.1-0.3,0.2-0.5,0.2-0.8c0.4-1.1,0.7-2.2,1.1-3.3
				c0.1-0.3,0.3-0.6,0.4-0.8c0.7-1.6,1.4-3.2,2.1-4.8c0.4-1-2.1-0.9-2.6-0.7c-0.1,0-0.2,0.1-0.2,0.1c-0.2,0-0.3-0.3-0.3-0.5
				c-0.4-2.1-3.9,0.8-4.5,1.2c-0.4,0.3-0.7,0.6-1,0.8c-0.6,0.5-1.3,0.9-1.9,1.5c-0.4,0.4-0.9,0.7-1.4,0.9c-0.6,0.2-1.1,0.4-1.7,0.7
				c-1.5,0.8-3,1.6-4.4,2.4c-0.6,0.4-1.2,0.8-1.9,1.1c-0.7,0.3-1.4,0.6-2,0.9c-0.2,0.1-0.5,0.2-0.8,0.2c-0.6,0.1-0.7,0-0.7-0.6
				c0-0.3,0.1-0.5,0.1-0.8c0.3-1.2,0.9-2.2,1.7-3.1c0.1-0.1,0.2-0.2,0.4-0.2c0.4,0,0.8-0.1,1.3-0.2c1.1-0.2,2.1-0.6,3.1-1.1
				c1.5-0.7,2.8-1.6,3.8-2.9c0.3-0.4,0.5-0.8,0.8-1.1c1.1-1.7-0.8-3.3-2.4-2.6c-0.2,0.1-0.5,0.2-0.7,0.3c-0.6,0.3-1.3,0.5-1.9,1
				c-1.1,0.8-2.1,1.7-3.1,2.5c-0.3,0.3-0.8,0.7-1,1c-0.5,0.6-0.9,1.2-1.4,1.7c-0.9,1-1.4,2.1-1.8,3.3c-0.3,1-0.1,2,0.4,2.9
				c0.6,0.9,1.8,1.2,2.5,1c0.4-0.1,0.7-0.2,1-0.4c1.8-0.8,3.6-1.9,5.2-3.1c0.7-0.5,1.4-1,2.1-1.4c0.1-0.1,0.2,0,0.3-0.1
				c-0.1,0.2-0.2,0.4-0.3,0.5c-0.9,1.2-1.8,2.4-1.7,4c0,0.2,0.1,0.5,0.2,0.7c0.2,0.3,0.5,0.6,0.9,0.7c0.4,0.1,0.8,0.1,1.1,0
				c1.3-0.3,2.2-1.4,3.2-2.1c0.8-0.5,1.4-1.2,2.1-1.8C163.1,33.5,163.3,33.3,163.5,33.2 M149.5,29.8c0.1-0.2,0.2-0.4,0.4-0.6
				c1.9-1.8,4-3.8,6.1-5.5c0.1-0.1,0.2-0.1,0.3-0.2c0.4-0.2,0.8,0,0.8,0.5c0,0.2-0.1,0.4-0.2,0.5c-0.5,1.1-1.3,2.1-2.3,2.9
				c-1.4,1.2-2.9,1.9-4.6,2.3c-0.2,0-0.3,0.1-0.5,0.1C149.6,29.8,149.6,29.8,149.5,29.8 M158.3,35c0.1-0.3,0.2-0.5,0.4-0.7
				c0.3-0.5,0.7-0.9,1.1-1.3c1-1.1,2-2.3,3.1-3.3c0.9-0.9,1.9-1.7,2.9-2.5c0.2-0.2,0.5-0.3,0.7-0.4c0.1,0,0.3,0,0.3,0.1
				c0.1,0.1,0.1,0.3,0.1,0.5c0,0.2-0.2,0.3-0.3,0.5c-0.7,1.1-1.5,2-2.5,2.8c-0.7,0.6-1.4,1.2-2.1,1.7c-0.9,0.7-1.7,1.5-2.6,2.2
				C159.1,34.7,158.8,34.9,158.3,35"/>
			<path d="M192.3,28.9c0,0,0.1,0.1,0.1,0.1c-0.1,0.1-0.1,0.3-0.2,0.4c-0.2,0.4-0.5,0.8-0.7,1.2c-0.8,1.5-0.9,3-0.2,4.6
				c0.4,0.9,1.5,1.4,2.4,1.6c1.2,0.2,3-0.9,3.8-1.7c1-1,1.7-1.7,2.6-2.9c0.7-1,1.6-2,2.2-3.1c0.4-0.8,0.9-1.4,1.5-2
				c1.1-1.1,2.1-2.3,3.2-3.2c1-0.9,2.2-1.7,3.3-2.3c0.2-0.1,0.3-0.2,0.6-0.1c0,0.1,0,0.1,0,0.2c-0.1,0.3-0.4,0.5-0.6,0.8
				c-0.4,0.6-0.8,1.2-1.2,1.8c-0.8,1.3-1.6,2.5-2.5,3.8c-0.5,0.8-1.1,1.6-1.7,2.5c-0.3,0.5-0.6,1-0.9,1.5c-0.3,0.6-0.4,1.2,0,1.9
				c0.2,0.5,0.7,0.7,1,1c0.2,0.1,0.4,0.1,0.7-0.1c0.5-0.3,0.9-0.7,1.3-1.1c0.9-0.9,1.7-1.8,2.6-2.6c1.1-1.1,2.3-2.3,3.4-3.4
				c0.9-0.9,1.8-1.7,2.7-2.5c0.1-0.1,0.2-0.2,0.5-0.3c-0.1,0.2-0.1,0.3-0.2,0.4c-0.4,0.5-0.8,1.1-1.1,1.7c-0.7,1.3-1.5,2.5-2.2,3.7
				c-1,1.8-2,3.5-2.5,5.5c-0.1,0.5,0,0.8,0.3,1.2c0.2,0.3,0.5,0.5,0.7,0.8c0.3,0.3,0.4,0.3,0.8,0.2c0.1-0.1,0.3-0.1,0.4-0.2
				c0.6-0.3,1.2-0.8,1.6-1.4c1.2-1.3,2.2-2.6,3.4-3.8c1.6-1.6,3.1-3.3,4.6-4.9c1.2-1.3,2.5-2.6,3.7-3.9c0.1-0.2,0.3-0.3,0.5-0.4
				c0,0.4,0.1,0.4-0.1,0.7c-0.4,1.1-0.7,2.3-1,3.5c-0.2,0.7-0.2,0.6-0.4,1.2c-0.1,0.2-0.2,0.4-0.4,0.5c-0.3,0.1-0.6,0.3-1,0.4
				c-1.6,0.6-3.1,1.4-4.4,2.5c-0.3,0.2-0.5,0.5-0.7,0.7c-0.2,0.3-0.5,0.7-0.4,1c0,0.5-0.4,1,1.1,1.1c0.1,0,0.3,0,0.4,0.1
				c1.4,0.7,3.5,1.1,5,0.6c1.5-0.5,2.3-1.9,2.8-3.3c0.3-0.9,0.5-1.6,0.5-2.5c0-0.4,0.2-0.6,0.5-0.7c1-0.3,2.1-0.6,3.1-0.8
				c1.5-0.3,3-0.4,4.6-0.4c1.1,0,2.2,0.1,3.3,0.2c0.6,0.1,1.2,0.2,1.7,0.2c0.4,0.1,0.9,0.3,1.4,0.3c0.1,0,0.2-0.2,0.1-0.3
				c-0.2-0.2-0.6-0.3-0.8-0.4c-2.8-0.9-5.2-1.1-8.1-0.9c-1.8,0.1-3.5,0.4-5.2,0.9c-0.2,0-0.3,0-0.5,0c0.2-0.7,0.2-1.1,0.4-1.7
				c0.3-1.1,0.6-2.1,0.9-3.2c0.1-0.3,0.2-0.6,0.3-0.9c0.3-0.5,0.6-1,1-1.5c0.5-0.6,1.1-1.1,1.9-1.2c0.1,0,0.1,0,0.2,0
				c0.2,0,0.3-0.3,0.1-0.4c-0.5-0.5-1.2-0.7-1.9-0.5c-0.7,0.2-1.2,0.6-1.7,1.1c-0.4,0.4-0.8,0.8-1.2,1.2c-1.3,1.1-2.5,2.2-3.8,3.4
				c-1,0.9-1.9,1.9-2.9,2.8c-1.4,1.4-2.8,2.7-4.1,4.1c-0.9,0.9-1.7,1.9-2.5,2.8c-0.7,0.7-1.4,1.4-2.1,2.1c-0.2,0.2-0.4,0.3-0.6,0.4
				c-0.1-0.4-0.1-0.4,0-0.6c0.8-2.2,1.9-4.2,3.1-6.2c0.8-1.4,1.9-2.6,2.5-4.1c0.2-0.5,0.4-1,0.6-1.5c0.1-0.3-0.1-0.5-0.4-0.6
				c-0.4-0.1-0.8-0.1-1.2,0.1c-0.6,0.3-1.1,0.7-1.7,1.1c-0.9,0.7-1.8,1.4-2.6,2.1c-0.6,0.5-1.1,0.9-1.6,1.4
				c-0.2,0.2-0.4,0.4-0.7,0.4c0.1-0.2,0.1-0.3,0.1-0.3c1.1-1.8,2.5-3.6,3.2-5.6c0.1-0.4,0.2-0.9,0-1.2c-0.2-0.4-0.6-0.8-1-0.9
				c-0.6-0.1-1.1-0.2-1.7,0.1c-1.1,0.5-2.1,1.1-3,1.7c-1.3,0.9-2.5,2-3.6,3.1c-0.1,0.1-0.2,0.1-0.3,0.2c-0.2-0.2-0.2-0.4-0.2-0.6
				c0-0.3,0-0.7-0.2-0.9c-0.2-0.2-0.4-0.3-0.6-0.4c-0.1,0-0.2-0.1-0.3-0.1c-0.2,0-0.4,0.1-0.4,0.4c0,0.7,0.2,1.3,0,1.9
				c-0.5,1.5-1.3,2.9-2.3,4.1c-0.9,1.1-1.8,2.1-2.9,3.1c-0.6,0.5-1.3,1-1.9,1.5c-0.1,0.1-0.2,0.1-0.4,0.1c0-0.1,0-0.2,0-0.3
				c0-0.2,0-0.4,0.1-0.6c0.4-2,1.4-3.8,2.6-5.4c0.8-1.1,1.5-2.4,2.4-3.3c0.7-0.6,1.3-1.3,2-1.9c0.5-0.5,1-0.9,1.7-1.2
				c0.2-0.1,0.3-0.3,0.3-0.5c0-0.2-0.1-0.3-0.3-0.4c-0.3-0.1-0.6-0.2-0.9-0.3c-0.4-0.2-0.8-0.1-1.2,0.2c-4.7,3.1-9.1,6.7-13.6,10.2
				c-0.9,0.7-1.9,1.4-2.8,2.1c-0.2,0.1-0.3,0.3-0.6,0.2c0-0.1,0-0.3,0.1-0.4c0.4-1.1,1-2.1,1.6-3.1c1-1.6,2.6-3.2,3-5.2
				c0.1-0.4,0-0.5-0.3-0.7c-0.3-0.2-0.7-0.2-1.1-0.3c-0.2,0-0.3,0.1-0.4,0.2c-0.3,0.8-0.9,1.5-1.4,2.2c-0.8,1.2-1.6,2.4-2.3,3.7
				c-0.4,0.8-0.8,1.6-1,2.5c0,0.2-0.1,0.4,0,0.6c0.3,0.8,0.6,1.8,1.6,1.7c0.3,0,0.6-0.1,0.9-0.3c1.7-0.8,3.2-2.2,4.7-3.4
				c0.9-0.8,1.8-1.6,2.7-2.4C192.1,29,192.2,29,192.3,28.9 M224.2,31c-0.4,0.8-0.8,1.5-1.2,2.3c-0.2,0.4-1,0.8-1.5,1.1
				c-1,0.3-1.5,0.4-2.6,0.4h0c-0.2,0-0.3-0.2-0.2-0.3c0.1-0.3,0.2-0.5,0.5-0.7c0.7-0.5,1.4-1.1,2.1-1.6c0.8-0.5,1.7-0.8,2.5-1.2
				c0.1,0,0.2,0,0.3-0.1C224.2,30.9,224.2,30.9,224.2,31"/>
		</g>
	</g>
</g>
</svg>
