<?xml version="1.0" encoding="UTF-8" standalone="no"?>
<svg width="42px" height="30px" viewBox="0 0 42 30" version="1.1" xmlns="http://www.w3.org/2000/svg" xmlns:xlink="http://www.w3.org/1999/xlink">
    <!-- Generator: Sketch 44.1 (41455) - http://www.bohemiancoding.com/sketch -->
    <title>Fill 1</title>
    <desc>Created with Sketch.</desc>
    <defs></defs>
    <g id="Symbols" stroke="none" stroke-width="1" fill="none" fill-rule="evenodd">
        <g id="Tab-/-Machines" transform="translate(-14.000000, -20.000000)" stroke="#000000" stroke-width="0.2" fill="#000000">
            <path d="M48.0256255,48.3844829 L46.8595434,48.3860869 L46.7119787,48.3860869 L24.4297063,48.3941067 L24.4168746,24.68591 L24.4649935,24.68591 L24.4649935,21.6720611 L46.519503,21.6608333 L46.519503,21.6720611 L48.0978039,21.6720611 L48.0978039,24.0747996 L48.4266166,24.0747996 C48.765053,24.0731956 49.1949155,24.0731956 49.7595109,24.0731956 C50.0963434,24.0764036 50.3273143,24.193493 50.5470574,24.4260678 C50.7106618,24.6008999 50.8518106,24.8463065 50.9672961,25.1414359 L42.4181662,25.1462478 C41.5905206,24.8896135 40.5238843,24.5736325 40.2287549,24.5736325 C39.729922,24.5736325 39.3273269,24.9794355 39.3273269,25.4766644 C39.3273269,25.9738934 39.729922,26.3796964 40.2287549,26.3796964 C40.5238843,26.3780924 41.5905206,26.0637154 42.4149583,25.8054771 L51.1693956,25.8022692 C51.1998709,25.9241705 51.2287422,26.0444678 51.2528017,26.172785 C51.3939506,26.9218363 51.4372576,27.7671255 51.4372576,28.5161768 C51.4372576,29.1032278 51.4099902,29.632536 51.3843268,30.0110716 C51.376307,30.1361808 51.3682871,30.2388345 51.3586634,30.3270526 L50.293631,30.3270526 L49.7835704,28.8000785 L48.0978039,28.8016825 L48.1042197,32.5870383 L46.5243149,32.5870383 L46.5291268,42.3471612 L46.8595434,42.3471612 L53.7998971,42.3439533 L48.0256255,48.3844829 Z M16.4002609,48.3989186 L16.3890331,25.6210212 L15.6624373,25.6210212 L15.6624373,24.689118 L23.8394474,24.68591 L23.8506752,48.3957107 L16.4002609,48.3989186 Z M47.1851482,41.6879319 L47.1851482,33.2462676 L48.765053,33.2462676 L48.7586372,29.4609118 L49.3087969,29.4593079 L49.8204616,30.9878859 L51.956942,30.9878859 L51.9890213,30.6959644 C51.9890213,30.6879445 52.0980909,29.7287739 52.0980909,28.5161768 C52.094883,27.6580559 52.0355363,26.6828456 51.8414566,25.8006652 L53.6779958,25.8006652 C53.8608477,25.8006652 54.0084124,25.6514965 54.0084124,25.4702486 C54.0084124,25.2890006 53.8608477,25.1398319 53.6779958,25.1398319 L51.6682285,25.1414359 C51.5190598,24.6939298 51.3185642,24.2929388 51.0314546,23.9785618 C50.7170776,23.6337094 50.2775914,23.4091544 49.7595109,23.4139663 L48.7586372,23.4139663 L48.7586372,21.0112278 L47.1803363,21.0128317 L47.1803363,21 L23.8025562,21.0128317 L23.8025562,24.0234728 L15,24.0282846 L15.0032079,26.2834585 L15.7298038,26.2818545 L15.7394276,49.0597519 L24.1458046,49.05494 L24.2725178,49.05494 L46.7119787,49.0453162 L46.8595434,49.0453162 L48.3079232,49.0437123 L55.3461187,41.68312 L47.1851482,41.6879319 Z" id="Fill-1"></path>
        </g>
    </g>
</svg>