<?xml version="1.0" encoding="UTF-8" standalone="no"?>
<svg width="28px" height="35px" viewBox="0 0 28 35" version="1.1" xmlns="http://www.w3.org/2000/svg" xmlns:xlink="http://www.w3.org/1999/xlink">
    <!-- Generator: Sketch 44.1 (41455) - http://www.bohemiancoding.com/sketch -->
    <title>Group 2</title>
    <desc>Created with Sketch.</desc>
    <defs></defs>
    <g id="Symbols" stroke="none" stroke-width="1" fill="none" fill-rule="evenodd">
        <g id="Tab-/-Recycling" transform="translate(-21.000000, -18.000000)" stroke="#FFFFFF" stroke-width="0.4" fill="#000000">
            <g id="Group-2" transform="translate(22.000000, 18.000000)">
                <path d="M13.5864688,4.29110839 C14.3458438,4.29110839 15.0855313,4.35830839 15.7999063,4.48990839 L15.9095938,4.50110839 C16.0530313,4.50110839 16.1964688,4.45350839 16.3061563,4.36390839 C16.4552188,4.24910839 16.5424063,4.08110839 16.5480313,3.90190839 L16.6239688,2.39830839 L23.0842813,9.70910839 L15.7295938,16.1547084 L15.8392813,14.3935084 C15.8617813,14.1135084 15.6845938,13.8503084 15.4089688,13.7551084 C15.1783438,13.6767084 13.9267813,13.2959084 12.0424063,13.2959084 C9.37896875,13.2959084 5.40771875,14.0631084 1.37459375,17.6499084 C1.34646875,17.2663084 1.32678125,16.8351084 1.32678125,16.4935084 C1.32678125,9.76510839 6.83084375,4.29110839 13.5864688,4.29110839 M14.5427187,14.8247084 L14.3655312,17.5939084 C14.3486562,17.8515084 14.4864687,18.0867084 14.7114687,18.2015084 C14.9420937,18.3163084 15.2233437,18.2715084 15.4145937,18.1091084 L24.4033437,10.2383084 C24.5299062,10.1235084 24.6058437,9.96950839 24.6114687,9.80430839 C24.6227187,9.64190839 24.5664687,9.47670839 24.4567812,9.35070839 L16.5536562,0.404708387 C16.3877187,0.219908387 16.1233437,0.141508387 15.8674062,0.225508387 C15.6255312,0.312308387 15.4595937,0.530708387 15.4427187,0.788308387 L15.3217812,3.13750839 C14.7452187,3.06470839 14.1630312,3.02830839 13.5864687,3.02830839 C6.13334375,3.02830839 0.06115625,9.06790839 0.06115625,16.4935084 C0.06115625,16.9023084 0.08928125,17.5015084 0.13428125,18.0223084 C0.21584375,19.0387084 0.29740625,19.2179084 0.46334375,19.3859084 C0.58990625,19.5091084 0.75021875,19.5735084 0.91896875,19.5735084 C1.09053125,19.5735084 1.25928125,19.5035084 1.37459375,19.3831084 C7.08115625,13.7047084 12.8186562,14.4187084 14.5427187,14.8247084" id="Fill-1"></path>
                <path d="M20.98025,26.6090684 C18.66275,28.9078684 15.5915,30.1762684 12.29525,30.1762684 C11.5443125,30.1734684 10.8018125,30.1062684 10.0761875,29.9690684 L9.972125,29.9606684 C9.8230625,29.9606684 9.68525,30.0110684 9.5755625,30.0950684 C9.4349375,30.2070684 9.3449375,30.3750684 9.3365,30.5570684 L9.252125,32.0606684 L2.8086875,24.7386684 L10.18025,18.3070684 L10.0649375,20.0682684 C10.0424375,20.3510684 10.219625,20.6114684 10.489625,20.7094684 C10.624625,20.7542684 11.9155625,21.1770684 13.8843125,21.1770684 C16.542125,21.1770684 20.50775,20.4098684 24.53525,16.8426684 C24.5605625,17.2234684 24.5774375,17.6546684 24.5774375,17.9990684 C24.574625,21.2554684 23.292125,24.3158684 20.98025,26.6090684 M25.4549375,15.1178684 C25.215875,14.8714684 24.788375,14.8658684 24.540875,15.1066684 C20.53025,19.0826684 16.530875,19.9114684 13.8843125,19.9114684 C12.7143125,19.9114684 11.828375,19.7546684 11.3615,19.6426684 L11.5443125,16.8734684 C11.564,16.6186684 11.429,16.3778684 11.1955625,16.2658684 C10.9649375,16.1510684 10.6865,16.1874684 10.4980625,16.3554684 L1.49525,24.2066684 C1.2336875,24.4334684 1.2055625,24.8282684 1.4361875,25.0942684 L9.3224375,34.0542684 C9.443375,34.1914684 9.6149375,34.2698684 9.79775,34.2698684 C9.8680625,34.2698684 9.938375,34.2558684 10.005875,34.2362684 C10.24775,34.1522684 10.4165,33.9338684 10.433375,33.6734684 L10.5599375,31.3270684 C11.130875,31.3970684 11.7186875,31.4362684 12.323375,31.4362684 C15.9261875,31.4362684 19.320875,30.0418684 21.874625,27.5022684 C24.4311875,24.9654684 25.8374375,21.5914684 25.8430625,18.0018684 C25.845875,17.6154684 25.8205625,17.0302684 25.7755625,16.4730684 C25.694,15.4454684 25.6180625,15.2746684 25.4549375,15.1178684" id="Fill-3"></path>
            </g>
        </g>
    </g>
</svg>