<?xml version="1.0" encoding="UTF-8" standalone="no"?>
<svg
   xmlns:dc="http://purl.org/dc/elements/1.1/"
   xmlns:cc="http://creativecommons.org/ns#"
   xmlns:rdf="http://www.w3.org/1999/02/22-rdf-syntax-ns#"
   xmlns:svg="http://www.w3.org/2000/svg"
   xmlns="http://www.w3.org/2000/svg"
   xmlns:sodipodi="http://sodipodi.sourceforge.net/DTD/sodipodi-0.dtd"
   xmlns:inkscape="http://www.inkscape.org/namespaces/inkscape"
   height="24"
   width="24"
   version="1.1"
   viewBox="0 0 120 120"
   id="svg3969"
   inkscape:version="0.48.5 r10040"
   sodipodi:docname="icon-chat-small.svg">
  <metadata
     id="metadata3981">
    <rdf:RDF>
      <cc:Work
         rdf:about="">
        <dc:format>image/svg+xml</dc:format>
        <dc:type
           rdf:resource="http://purl.org/dc/dcmitype/StillImage" />
        <dc:title></dc:title>
      </cc:Work>
    </rdf:RDF>
  </metadata>
  <defs
     id="defs3979" />
  <sodipodi:namedview
     pagecolor="#ffffff"
     bordercolor="#666666"
     borderopacity="1"
     objecttolerance="10"
     gridtolerance="10"
     guidetolerance="10"
     inkscape:pageopacity="0"
     inkscape:pageshadow="2"
     inkscape:window-width="1920"
     inkscape:window-height="1018"
     id="namedview3977"
     showgrid="false"
     inkscape:zoom="14.75"
     inkscape:cx="-5.1864407"
     inkscape:cy="8"
     inkscape:window-x="0"
     inkscape:window-y="27"
     inkscape:window-maximized="1"
     inkscape:current-layer="g3974" />
  <g
     id="LiveChat"
     transform="matrix(2.3,0,0,2.3,-59.1,40.834)"
     style="fill:none">
    <g
       id="Live-chat-board"
       transform="translate(-1250,-1019)"
       style="stroke-width:1.10000002">
      <g
         id="Group"
         transform="translate(777,200)">
        <g
           transform="matrix(1.5649575,0,0,1.5618476,471.68651,736.75632)"
           id="g3974"
           style="fill:#989898">
          <path
             id="icon-chat"
             d="m 48.6,74 c -1.16,-0.423 -2.27,-0.828 -3.38,-1.24 -1.02,-0.376 -2.03,-0.752 -3.05,-1.13 -0.601,-0.238 -1.27,-0.232 -1.87,0.0169 -2.8,1.14 -5.71,1.57 -8.68,1.05 -6.51,-1.13 -11,-4.75 -13,-11.2 -1.55,-5.18 -0.356,-9.94 3.15,-14 2.86,-3.33 6.56,-5.08 10.9,-5.45 6.4,-0.556 12.6,2.77 15.5,8.53 2.6,5.18 2.24,10.3 -0.848,15.2 -0.416,0.661 -0.553,1.3 -0.346,2.07 0.516,1.93 0.976,3.87 1.46,5.81 0.0238,0.0953 0.0362,0.193 0.0625,0.335 z m -22,-18.4 c -1.35,-0.0024 -2.45,1.1 -2.46,2.45 -0.0039,1.36 1.09,2.46 2.44,2.47 1.35,0.0054 2.46,-1.09 2.46,-2.45 0.0052,-0.655 -0.251,-1.28 -0.711,-1.75 -0.4,-0.5 -1,-0.7 -1.7,-0.7 z m 7.38,0 c -1.35,-0.0134 -2.46,1.08 -2.48,2.43 -0.0148,1.36 1.07,2.47 2.42,2.49 1.35,0.0163 2.46,-1.07 2.48,-2.43 0.0104,-0.655 -0.24,-1.29 -0.697,-1.75 -0.456,-0.468 -1.08,-0.734 -1.73,-0.739 z m 7.37,0 c -1.35,-0.0175 -2.47,1.07 -2.48,2.43 -0.0189,1.36 1.06,2.47 2.42,2.5 1.35,0.0204 2.47,-1.06 2.49,-2.42 0.0122,-0.654 -0.237,-1.29 -0.691,-1.76 -0.455,-0.47 -1.08,-0.737 -1.73,-0.744 z"
             inkscape:connector-curvature="0"
             style="fill:#000000;fill-opacity:1" />
        </g>
      </g>
    </g>
  </g>
</svg>
