<svg xmlns="http://www.w3.org/2000/svg" xmlns:xlink="http://www.w3.org/1999/xlink" xmlns:a="http://ns.adobe.com/AdobeSVGViewerExtensions/3.0/"><symbol id="svg-direction" viewBox="0 0 22.5 22.5">
    <path id="Combined-Shape_1_" class="st0" d="M9.9,0.6c0.8-0.8,2-0.8,2.8,0L22,9.9c0.8,0.8,0.8,2,0,2.8L12.7,22c-0.8,0.8-2,0.8-2.8,0
    l-9.3-9.3c-0.8-0.8-0.8-2,0-2.8L9.9,0.6z M9.2,15.2c0,0-0.1-2,0-2.7c0.1-0.7,0.9-0.7,0.9-0.7h3.4v2.7l3.8-3.8l-3.8-3.8v2.2H8
    c-1.6,0-1.5,1.5-1.5,1.5v4.6H9.2z"/>
</symbol><symbol id="svg-handicap" viewBox="0 0 12 13.8">
    <g>
        <path class="st0" d="M11.5,10.4L10.3,11L8.6,7.1H4.4l0-0.9h3V5.1H4.3L4.2,2.5c0.5-0.2,0.8-0.7,0.8-1.2C4.9,0.6,4.3,0,3.6,0
        C2.9,0,2.3,0.6,2.3,1.3c0,0.5,0.3,0.9,0.7,1.2l0.3,5.8h4.5l1.9,4.3l2.2-1L11.5,10.4z"/>
        <path class="st0" d="M4.5,12.7c-1.9,0-3.4-1.5-3.4-3.4c0-1.1,0.5-2,1.3-2.6L2.4,5.3C1,6.1,0,7.6,0,9.3c0,2.5,2,4.5,4.5,4.5
        c1.7,0,3.2-0.9,4-2.3l-0.7-1.5C7.5,11.6,6.1,12.7,4.5,12.7z"/>
    </g>
</symbol><symbol id="svg-options" viewBox="0 0 17 18">

    <path d="M3,3.1V0H2v3.1C0.9,3.3,0,4.3,0,5.5s0.9,2.2,2,2.4V18h1V7.9c1.1-0.2,2-1.2,2-2.4S4.1,3.3,3,3.1z M3,6.9L3,6.9
    C2.8,6.9,2.7,7,2.5,7S2.2,6.9,2,6.9v0C1.4,6.7,1,6.2,1,5.5s0.4-1.2,1-1.4C2.2,4,2.3,4,2.5,4S2.8,4,3,4.1c0.6,0.2,1,0.8,1,1.4
    S3.6,6.7,3,6.9z"/>
    <path d="M9,10.1V0H8v10.1c-1.1,0.2-2,1.2-2,2.4s0.9,2.2,2,2.4V18h1v-3.1c1.1-0.2,2-1.2,2-2.4S10.1,10.3,9,10.1z M9,13.9L9,13.9
    C8.8,14,8.7,14,8.5,14c-0.2,0-0.3,0-0.5-0.1v0c-0.6-0.2-1-0.8-1-1.4s0.4-1.2,1-1.4v0c0.2,0,0.3-0.1,0.5-0.1c0.2,0,0.3,0,0.5,0.1v0
    c0.6,0.2,1,0.8,1,1.4S9.6,13.7,9,13.9z"/>
    <path d="M15,6.6V0h-1v6.6c-1.1,0.2-2,1.2-2,2.4s0.9,2.2,2,2.4V18h1v-6.6c1.1-0.2,2-1.2,2-2.4S16.1,6.8,15,6.6z M15,10.4L15,10.4
    c-0.2,0-0.3,0.1-0.5,0.1s-0.3,0-0.5-0.1v0c-0.6-0.2-1-0.8-1-1.4s0.4-1.2,1-1.4v0c0.2,0,0.3-0.1,0.5-0.1s0.3,0,0.5,0.1v0
    c0.6,0.2,1,0.8,1,1.4S15.6,10.2,15,10.4z"/>
</symbol><symbol id="svg-phone" viewBox="0 0 15 23">
    <path id="Fill-1_1_" class="st0" d="M11.8,23c-3.7,0.2-7.9-5.9-9.3-8.5C1.1,11.9-1.3,5.2,0.8,1.9c1-1.4,1.8-1.8,2.3-1.9
    C3.7-0.1,4,0.3,4,0.3l2,3.8L3,5.7c0,0-0.3,0.2,0.2,1.8c0.3,1.1,1,2.8,2.4,5.4c3.2,6.2,4.3,6.2,4.4,6.2l3-1.6l2,3.8
    c0,0,0.4,1.1-1.7,1.5C12.9,23,12.4,23,11.8,23z"/>
</symbol><symbol id="svg-recycle" viewBox="0 0 8.2 14">
    <path id="Fill-1_1_" class="st0" d="M4.8,7.4c0,0.1,0,0.2,0.1,0.2c0.1,0,0.2,0,0.2,0l3-3.4c0,0,0.1-0.1,0.1-0.1c0-0.1,0-0.1-0.1-0.1
    L5.5,0.1C5.4,0,5.4,0,5.3,0C5.2,0,5.1,0.1,5.1,0.2l0,1.7c-0.2,0-0.4,0-0.6,0C2,1.9,0,3.8,0,6.1c0,0.1,0,0.3,0,0.5
    c0,0.3,0.1,0.4,0.1,0.4C0.2,7,0.2,7,0.3,7c0.1,0,0.1,0,0.2-0.1c1.9-1.8,3.8-1.5,4.4-1.4L4.8,7.4z"/>
    <path id="Fill-3_1_" class="st0" d="M7.8,7.1C6.4,8.3,5.1,8.5,4.2,8.5c-0.4,0-0.7,0-0.8-0.1l0.1-1.9c0-0.1,0-0.2-0.1-0.2
    c-0.1,0-0.2,0-0.2,0l-3,3.4C0,9.9,0,10.1,0.1,10.2l2.6,3.8c0,0,0.1,0.1,0.2,0.1c0,0,0,0,0.1,0C3,14,3,13.9,3.1,13.8l0-1.7
    c0.2,0,0.4,0,0.6,0c1.2,0,2.3-0.4,3.2-1.2C7.7,10.1,8.2,9.1,8.2,8c0-0.1,0-0.3,0-0.5c0-0.3-0.1-0.4-0.1-0.4C8,7,7.8,7,7.8,7.1z"/>
</symbol><symbol id="svg-recycling" viewBox="0 0 8.2 14">
    <path id="Fill-1_1_" class="st0" d="M4.8,7.4c0,0.1,0,0.2,0.1,0.2c0.1,0,0.2,0,0.2,0l3-3.4c0,0,0.1-0.1,0.1-0.1c0-0.1,0-0.1-0.1-0.1
    L5.5,0.1C5.4,0,5.4,0,5.3,0C5.2,0,5.1,0.1,5.1,0.2l0,1.7c-0.2,0-0.4,0-0.6,0C2,1.9,0,3.8,0,6.1c0,0.1,0,0.3,0,0.5
    c0,0.3,0.1,0.4,0.1,0.4C0.2,7,0.2,7,0.3,7c0.1,0,0.1,0,0.2-0.1c1.9-1.8,3.8-1.5,4.4-1.4L4.8,7.4z"/>
    <path id="Fill-3_1_" class="st0" d="M7.8,7.1C6.4,8.3,5.1,8.5,4.2,8.5c-0.4,0-0.7,0-0.8-0.1l0.1-1.9c0-0.1,0-0.2-0.1-0.2
    c-0.1,0-0.2,0-0.2,0l-3,3.4C0,9.9,0,10.1,0.1,10.2l2.6,3.8c0,0,0.1,0.1,0.2,0.1c0,0,0,0,0.1,0C3,14,3,13.9,3.1,13.8l0-1.7
    c0.2,0,0.4,0,0.6,0c1.2,0,2.3-0.4,3.2-1.2C7.7,10.1,8.2,9.1,8.2,8c0-0.1,0-0.3,0-0.5c0-0.3-0.1-0.4-0.1-0.4C8,7,7.8,7,7.8,7.1z"/>
</symbol><symbol id="svg-target" viewBox="0 0 22 22">
    <path d="M22,10.5h-1.5c-0.3-4.8-4.1-8.7-9-9V0h-1v1.5c-4.8,0.3-8.7,4.1-9,9H0v1h1.5c0.3,4.8,4.1,8.7,9,9V22h1v-1.5
    c4.8-0.3,8.7-4.1,9-9H22V10.5z M11.5,19.5V15h-1v4.5c-4.3-0.3-7.7-3.7-8-8H7v-1H2.5c0.3-4.3,3.7-7.7,8-8V7h1V2.5
    c4.3,0.3,7.7,3.7,8,8H15v1h4.5C19.2,15.8,15.8,19.2,11.5,19.5z"/>
</symbol><symbol id="svg-wheelchair" viewBox="0 0 12 13.8">
    <g>
        <path class="st0" d="M11.5,10.4L10.3,11L8.6,7.1H4.4l0-0.9h3V5.1H4.3L4.2,2.5c0.5-0.2,0.8-0.7,0.8-1.2C4.9,0.6,4.3,0,3.6,0
        C2.9,0,2.3,0.6,2.3,1.3c0,0.5,0.3,0.9,0.7,1.2l0.3,5.8h4.5l1.9,4.3l2.2-1L11.5,10.4z"/>
        <path class="st0" d="M4.5,12.7c-1.9,0-3.4-1.5-3.4-3.4c0-1.1,0.5-2,1.3-2.6L2.4,5.3C1,6.1,0,7.6,0,9.3c0,2.5,2,4.5,4.5,4.5
        c1.7,0,3.2-0.9,4-2.3l-0.7-1.5C7.5,11.6,6.1,12.7,4.5,12.7z"/>
    </g>
</symbol><symbol id="svg-wifi" viewBox="0 0 13.8 10.8">
    <path id="Path_3_" class="st0" d="M2.5,5.4l1.3,1.3c1.7-1.7,4.5-1.7,6.3,0l1.3-1.3C8.9,2.9,4.9,2.9,2.5,5.4"/>
    <path id="Path_2_" class="st0" d="M0,2.9l1.3,1.3C4.4,1,9.4,1,12.6,4.1l1.3-1.3C10-1,3.8-1,0,2.9"/>
    <circle id="Oval-2_1_" class="st0" cx="7" cy="9.2" r="1.6"/>
</symbol></svg>